<svg xmlns="http://www.w3.org/2000/svg" width="18" height="23" viewBox="0 0 18 23" fill="none">
  <g filter="url(#filter0_d_4_4190)">
    <path
      d="M12.24 0.428589H8.346C6.582 0.428589 5.184 0.428589 4.091 0.576589C2.965 0.728589 2.054 1.04859 1.336 1.76959C0.617 2.49059 0.298 3.40559 0.147 4.53559C7.45058e-08 5.63359 0 7.03659 0 8.80759V14.6456C0 16.1536 0.92 17.4456 2.227 17.9876C2.16 17.0776 2.16 15.8026 2.16 14.7406V9.73059C2.16 8.44959 2.16 7.34459 2.278 6.46059C2.405 5.51259 2.691 4.60459 3.425 3.86759C4.159 3.13059 5.064 2.84359 6.008 2.71559C6.888 2.59759 7.988 2.59759 9.265 2.59759H12.335C13.611 2.59759 14.709 2.59759 15.59 2.71559C15.3261 2.04188 14.8653 1.46333 14.2678 1.05537C13.6702 0.647417 12.9635 0.428995 12.24 0.428589Z"
      fill="white" />
    <path
      d="M3.6 9.82559C3.6 7.09959 3.6 5.73659 4.444 4.88959C5.287 4.04259 6.644 4.04259 9.36 4.04259H12.24C14.955 4.04259 16.313 4.04259 17.157 4.88959C18.001 5.73659 18 7.09959 18 9.82559V14.6456C18 17.3716 18 18.7346 17.157 19.5816C16.313 20.4286 14.955 20.4286 12.24 20.4286H9.36C6.645 20.4286 5.287 20.4286 4.444 19.5816C3.6 18.7346 3.6 17.3716 3.6 14.6456V9.82559Z"
      fill="white" />
    <path
      d="M4.11776 0.774791L4.11784 0.77478C5.19438 0.629009 6.57664 0.628589 8.346 0.628589H12.2399C12.24 0.628589 12.24 0.628589 12.24 0.628589C12.9233 0.628995 13.5906 0.835281 14.155 1.22055C14.6249 1.54138 15.0053 1.97393 15.2633 2.47706C14.4364 2.39759 13.4517 2.39759 12.3474 2.39759H12.335H9.265H9.25251C7.98552 2.39759 6.87467 2.39759 5.98142 2.51736L5.98113 2.5174C5.01509 2.64839 4.0607 2.94587 3.28329 3.72646C2.50602 4.5069 2.2097 5.46414 2.07977 6.43403L2.07976 6.43413C1.96 7.33132 1.96 8.44711 1.96 9.71817V9.73059V14.7406V14.7462C1.96 15.6792 1.96 16.7849 2.00628 17.6622C0.931756 17.0884 0.2 15.9529 0.2 14.6456V8.80759C0.2 7.03129 0.200411 5.64385 0.345231 4.56213L0.345238 4.56208C0.493297 3.45409 0.801942 2.58837 1.47762 1.91081L1.47772 1.91072C2.15234 1.23327 3.01397 0.923793 4.11776 0.774791ZM4.58567 5.03076L4.58576 5.03067C4.96393 4.65071 5.4646 4.44952 6.22639 4.34667C6.99402 4.24302 7.99632 4.24259 9.36 4.24259H12.24C13.6032 4.24259 14.6055 4.24302 15.3734 4.34667C16.1354 4.44953 16.6366 4.65073 17.0153 5.03076C17.3941 5.41085 17.5945 5.91412 17.6968 6.67946C17.7998 7.45049 17.8 8.45692 17.8 9.82559V14.6456C17.8 16.0142 17.7996 17.0207 17.6964 17.7917C17.594 18.557 17.3936 19.0604 17.0152 19.4405C16.6366 19.8205 16.1354 20.0217 15.3734 20.1245C14.6055 20.2282 13.6032 20.2286 12.24 20.2286H9.36C7.99682 20.2286 6.99452 20.2282 6.22676 20.1245C5.46482 20.0216 4.96392 19.8205 4.58576 19.4405L4.58567 19.4404C4.20689 19.0603 4.00627 18.557 3.90373 17.7917C3.80042 17.0206 3.8 16.0142 3.8 14.6456V9.82559C3.8 8.45695 3.80042 7.45053 3.90373 6.67952C4.00627 5.91421 4.20689 5.41088 4.58567 5.03076Z"
      stroke="black" stroke-width="0.4" />
  </g>
  <defs>
    <filter id="filter0_d_4_4190" x="0" y="0.428589" width="18" height="22"
      filterUnits="userSpaceOnUse" color-interpolation-filters="sRGB">
      <feFlood flood-opacity="0" result="BackgroundImageFix" />
      <feColorMatrix in="SourceAlpha" type="matrix"
        values="0 0 0 0 0 0 0 0 0 0 0 0 0 0 0 0 0 0 127 0" result="hardAlpha" />
      <feOffset dy="2" />
      <feComposite in2="hardAlpha" operator="out" />
      <feColorMatrix type="matrix" values="0 0 0 0 0 0 0 0 0 0 0 0 0 0 0 0 0 0 1 0" />
      <feBlend mode="normal" in2="BackgroundImageFix" result="effect1_dropShadow_4_4190" />
      <feBlend mode="normal" in="SourceGraphic" in2="effect1_dropShadow_4_4190" result="shape" />
    </filter>
  </defs>
</svg>