<svg width="182" height="22" viewBox="0 0 182 22" fill="none" xmlns="http://www.w3.org/2000/svg">
    <path
        d="M9.32628 5.8H11.9183V17H9.32628V5.8ZM4.23828 17H1.64628V5.8H4.23828V17ZM9.51828 12.408H4.04628V10.216H9.51828V12.408ZM19.4113 17V15.32L19.2513 14.952V11.944C19.2513 11.4107 19.0859 10.9947 18.7553 10.696C18.4353 10.3973 17.9393 10.248 17.2673 10.248C16.8086 10.248 16.3553 10.3227 15.9073 10.472C15.4699 10.6107 15.0966 10.8027 14.7873 11.048L13.8913 9.304C14.3606 8.97333 14.9259 8.71733 15.5873 8.536C16.2486 8.35467 16.9206 8.264 17.6033 8.264C18.9153 8.264 19.9339 8.57333 20.6593 9.192C21.3846 9.81067 21.7473 10.776 21.7473 12.088V17H19.4113ZM16.7873 17.128C16.1153 17.128 15.5393 17.016 15.0593 16.792C14.5793 16.5573 14.2113 16.2427 13.9553 15.848C13.6993 15.4533 13.5713 15.0107 13.5713 14.52C13.5713 14.008 13.6939 13.56 13.9393 13.176C14.1953 12.792 14.5953 12.4933 15.1393 12.28C15.6833 12.056 16.3926 11.944 17.2673 11.944H19.5553V13.4H17.5393C16.9526 13.4 16.5473 13.496 16.3233 13.688C16.1099 13.88 16.0033 14.12 16.0033 14.408C16.0033 14.728 16.1259 14.984 16.3713 15.176C16.6273 15.3573 16.9739 15.448 17.4113 15.448C17.8273 15.448 18.2006 15.352 18.5313 15.16C18.8619 14.9573 19.1019 14.664 19.2513 14.28L19.6353 15.432C19.4539 15.9867 19.1233 16.408 18.6433 16.696C18.1633 16.984 17.5446 17.128 16.7873 17.128ZM34.7694 8.264C35.4521 8.264 36.0547 8.40267 36.5774 8.68C37.1107 8.94667 37.5267 9.36267 37.8254 9.928C38.1347 10.4827 38.2894 11.1973 38.2894 12.072V17H35.7934V12.456C35.7934 11.7627 35.6494 11.2507 35.3614 10.92C35.0734 10.5893 34.6681 10.424 34.1454 10.424C33.7827 10.424 33.4574 10.5093 33.1694 10.68C32.8814 10.84 32.6574 11.0853 32.4974 11.416C32.3374 11.7467 32.2574 12.168 32.2574 12.68V17H29.7614V12.456C29.7614 11.7627 29.6174 11.2507 29.3294 10.92C29.0521 10.5893 28.6521 10.424 28.1294 10.424C27.7667 10.424 27.4414 10.5093 27.1534 10.68C26.8654 10.84 26.6414 11.0853 26.4814 11.416C26.3214 11.7467 26.2414 12.168 26.2414 12.68V17H23.7454V8.392H26.1294V10.744L25.6814 10.056C25.9801 9.46933 26.4014 9.02667 26.9454 8.728C27.5001 8.41867 28.1294 8.264 28.8334 8.264C29.6227 8.264 30.3107 8.46667 30.8974 8.872C31.4947 9.26667 31.8894 9.87467 32.0814 10.696L31.2014 10.456C31.4894 9.784 31.9481 9.25067 32.5774 8.856C33.2174 8.46133 33.9481 8.264 34.7694 8.264ZM43.1618 17.128C42.4258 17.128 41.7165 17.0427 41.0338 16.872C40.3618 16.6907 39.8285 16.4667 39.4338 16.2L40.2658 14.408C40.6605 14.6533 41.1245 14.856 41.6578 15.016C42.2018 15.1653 42.7351 15.24 43.2578 15.24C43.8338 15.24 44.2391 15.1707 44.4738 15.032C44.7191 14.8933 44.8418 14.7013 44.8418 14.456C44.8418 14.2533 44.7458 14.104 44.5538 14.008C44.3725 13.9013 44.1271 13.8213 43.8178 13.768C43.5085 13.7147 43.1671 13.6613 42.7938 13.608C42.4311 13.5547 42.0631 13.4853 41.6898 13.4C41.3165 13.304 40.9751 13.1653 40.6658 12.984C40.3565 12.8027 40.1058 12.5573 39.9138 12.248C39.7325 11.9387 39.6418 11.5387 39.6418 11.048C39.6418 10.504 39.7965 10.024 40.1058 9.608C40.4258 9.192 40.8845 8.86667 41.4818 8.632C42.0791 8.38667 42.7938 8.264 43.6258 8.264C44.2125 8.264 44.8098 8.328 45.4178 8.456C46.0258 8.584 46.5325 8.77067 46.9378 9.016L46.1058 10.792C45.6898 10.5467 45.2685 10.3813 44.8418 10.296C44.4258 10.2 44.0205 10.152 43.6258 10.152C43.0711 10.152 42.6658 10.2267 42.4098 10.376C42.1538 10.5253 42.0258 10.7173 42.0258 10.952C42.0258 11.1653 42.1165 11.3253 42.2978 11.432C42.4898 11.5387 42.7405 11.624 43.0498 11.688C43.3591 11.752 43.6951 11.8107 44.0578 11.864C44.4311 11.9067 44.8045 11.976 45.1778 12.072C45.5511 12.168 45.8871 12.3067 46.1858 12.488C46.4951 12.6587 46.7458 12.8987 46.9378 13.208C47.1298 13.5067 47.2258 13.9013 47.2258 14.392C47.2258 14.9253 47.0658 15.4 46.7458 15.816C46.4258 16.2213 45.9618 16.5413 45.3538 16.776C44.7565 17.0107 44.0258 17.128 43.1618 17.128ZM52.0249 17.128C51.0116 17.128 50.2223 16.872 49.6569 16.36C49.0916 15.8373 48.8089 15.064 48.8089 14.04V6.488H51.3049V14.008C51.3049 14.3707 51.4009 14.6533 51.5929 14.856C51.7849 15.048 52.0463 15.144 52.3769 15.144C52.7716 15.144 53.1076 15.0373 53.3849 14.824L54.0569 16.584C53.8009 16.7653 53.4916 16.904 53.1289 17C52.7769 17.0853 52.4089 17.128 52.0249 17.128ZM47.4809 10.504V8.584H53.4489V10.504H47.4809ZM59.2036 17.128C58.2222 17.128 57.3582 16.936 56.6116 16.552C55.8756 16.168 55.3049 15.6453 54.8996 14.984C54.4942 14.312 54.2916 13.5493 54.2916 12.696C54.2916 11.832 54.4889 11.0693 54.8836 10.408C55.2889 9.736 55.8382 9.21333 56.5316 8.84C57.2249 8.456 58.0089 8.264 58.8836 8.264C59.7262 8.264 60.4836 8.44533 61.1556 8.808C61.8382 9.16 62.3769 9.672 62.7716 10.344C63.1662 11.0053 63.3636 11.8 63.3636 12.728C63.3636 12.824 63.3582 12.936 63.3476 13.064C63.3369 13.1813 63.3262 13.2933 63.3156 13.4H56.3236V11.944H62.0036L61.0436 12.376C61.0436 11.928 60.9529 11.5387 60.7716 11.208C60.5902 10.8773 60.3396 10.6213 60.0196 10.44C59.6996 10.248 59.3262 10.152 58.8996 10.152C58.4729 10.152 58.0942 10.248 57.7636 10.44C57.4436 10.6213 57.1929 10.8827 57.0116 11.224C56.8302 11.5547 56.7396 11.9493 56.7396 12.408V12.792C56.7396 13.2613 56.8409 13.6773 57.0436 14.04C57.2569 14.392 57.5502 14.664 57.9236 14.856C58.3076 15.0373 58.7556 15.128 59.2676 15.128C59.7262 15.128 60.1262 15.0587 60.4676 14.92C60.8196 14.7813 61.1396 14.5733 61.4276 14.296L62.7556 15.736C62.3609 16.184 61.8649 16.5307 61.2676 16.776C60.6702 17.0107 59.9822 17.128 59.2036 17.128ZM64.7644 17V8.392H67.1484V10.824L66.8124 10.12C67.0684 9.512 67.4791 9.05333 68.0444 8.744C68.6098 8.424 69.2978 8.264 70.1084 8.264V10.568C70.0018 10.5573 69.9058 10.552 69.8204 10.552C69.7351 10.5413 69.6444 10.536 69.5484 10.536C68.8658 10.536 68.3111 10.7333 67.8844 11.128C67.4684 11.512 67.2604 12.1147 67.2604 12.936V17H64.7644ZM81.2486 17.192C80.3632 17.192 79.5472 17.0533 78.8006 16.776C78.0646 16.488 77.4192 16.0827 76.8646 15.56C76.3206 15.0373 75.8939 14.424 75.5846 13.72C75.2859 13.016 75.1366 12.2427 75.1366 11.4C75.1366 10.5573 75.2859 9.784 75.5846 9.08C75.8939 8.376 76.3259 7.76267 76.8806 7.24C77.4352 6.71733 78.0859 6.31733 78.8326 6.04C79.5792 5.752 80.4006 5.608 81.2966 5.608C82.2886 5.608 83.1792 5.77333 83.9686 6.104C84.7686 6.43467 85.4406 6.91467 85.9846 7.544L84.3206 9.08C83.9152 8.65333 83.4726 8.33867 82.9926 8.136C82.5126 7.92267 81.9899 7.816 81.4246 7.816C80.8806 7.816 80.3846 7.90133 79.9366 8.072C79.4886 8.24267 79.0992 8.488 78.7686 8.808C78.4486 9.128 78.1979 9.50667 78.0166 9.944C77.8459 10.3813 77.7606 10.8667 77.7606 11.4C77.7606 11.9227 77.8459 12.4027 78.0166 12.84C78.1979 13.2773 78.4486 13.6613 78.7686 13.992C79.0992 14.312 79.4832 14.5573 79.9206 14.728C80.3686 14.8987 80.8592 14.984 81.3926 14.984C81.9046 14.984 82.4006 14.904 82.8806 14.744C83.3712 14.5733 83.8459 14.2907 84.3046 13.896L85.7766 15.768C85.1686 16.2267 84.4592 16.5787 83.6486 16.824C82.8486 17.0693 82.0486 17.192 81.2486 17.192ZM83.4086 15.432V11.224H85.7766V15.768L83.4086 15.432ZM93.0275 17V15.32L92.8675 14.952V11.944C92.8675 11.4107 92.7021 10.9947 92.3715 10.696C92.0515 10.3973 91.5555 10.248 90.8835 10.248C90.4248 10.248 89.9715 10.3227 89.5235 10.472C89.0861 10.6107 88.7128 10.8027 88.4035 11.048L87.5075 9.304C87.9768 8.97333 88.5421 8.71733 89.2035 8.536C89.8648 8.35467 90.5368 8.264 91.2195 8.264C92.5315 8.264 93.5501 8.57333 94.2755 9.192C95.0008 9.81067 95.3635 10.776 95.3635 12.088V17H93.0275ZM90.4035 17.128C89.7315 17.128 89.1555 17.016 88.6755 16.792C88.1955 16.5573 87.8275 16.2427 87.5715 15.848C87.3155 15.4533 87.1875 15.0107 87.1875 14.52C87.1875 14.008 87.3101 13.56 87.5555 13.176C87.8115 12.792 88.2115 12.4933 88.7555 12.28C89.2995 12.056 90.0088 11.944 90.8835 11.944H93.1715V13.4H91.1555C90.5688 13.4 90.1635 13.496 89.9395 13.688C89.7261 13.88 89.6195 14.12 89.6195 14.408C89.6195 14.728 89.7421 14.984 89.9875 15.176C90.2435 15.3573 90.5901 15.448 91.0275 15.448C91.4435 15.448 91.8168 15.352 92.1475 15.16C92.4781 14.9573 92.7181 14.664 92.8675 14.28L93.2515 15.432C93.0701 15.9867 92.7395 16.408 92.2595 16.696C91.7795 16.984 91.1608 17.128 90.4035 17.128ZM108.386 8.264C109.068 8.264 109.671 8.40267 110.194 8.68C110.727 8.94667 111.143 9.36267 111.442 9.928C111.751 10.4827 111.906 11.1973 111.906 12.072V17H109.41V12.456C109.41 11.7627 109.266 11.2507 108.978 10.92C108.69 10.5893 108.284 10.424 107.762 10.424C107.399 10.424 107.074 10.5093 106.786 10.68C106.498 10.84 106.274 11.0853 106.114 11.416C105.954 11.7467 105.874 12.168 105.874 12.68V17H103.378V12.456C103.378 11.7627 103.234 11.2507 102.946 10.92C102.668 10.5893 102.268 10.424 101.746 10.424C101.383 10.424 101.058 10.5093 100.77 10.68C100.482 10.84 100.258 11.0853 100.098 11.416C99.9376 11.7467 99.8576 12.168 99.8576 12.68V17H97.3616V8.392H99.7456V10.744L99.2976 10.056C99.5962 9.46933 100.018 9.02667 100.562 8.728C101.116 8.41867 101.746 8.264 102.45 8.264C103.239 8.264 103.927 8.46667 104.514 8.872C105.111 9.26667 105.506 9.87467 105.698 10.696L104.818 10.456C105.106 9.784 105.564 9.25067 106.194 8.856C106.834 8.46133 107.564 8.264 108.386 8.264ZM118.216 17.128C117.235 17.128 116.371 16.936 115.624 16.552C114.888 16.168 114.318 15.6453 113.912 14.984C113.507 14.312 113.304 13.5493 113.304 12.696C113.304 11.832 113.502 11.0693 113.896 10.408C114.302 9.736 114.851 9.21333 115.544 8.84C116.238 8.456 117.022 8.264 117.896 8.264C118.739 8.264 119.496 8.44533 120.168 8.808C120.851 9.16 121.39 9.672 121.784 10.344C122.179 11.0053 122.376 11.8 122.376 12.728C122.376 12.824 122.371 12.936 122.36 13.064C122.35 13.1813 122.339 13.2933 122.328 13.4H115.336V11.944H121.016L120.056 12.376C120.056 11.928 119.966 11.5387 119.784 11.208C119.603 10.8773 119.352 10.6213 119.032 10.44C118.712 10.248 118.339 10.152 117.912 10.152C117.486 10.152 117.107 10.248 116.776 10.44C116.456 10.6213 116.206 10.8827 116.024 11.224C115.843 11.5547 115.752 11.9493 115.752 12.408V12.792C115.752 13.2613 115.854 13.6773 116.056 14.04C116.27 14.392 116.563 14.664 116.936 14.856C117.32 15.0373 117.768 15.128 118.28 15.128C118.739 15.128 119.139 15.0587 119.48 14.92C119.832 14.7813 120.152 14.5733 120.44 14.296L121.768 15.736C121.374 16.184 120.878 16.5307 120.28 16.776C119.683 17.0107 118.995 17.128 118.216 17.128ZM127.473 17.128C126.663 17.128 125.932 16.9467 125.281 16.584C124.631 16.2107 124.113 15.6933 123.729 15.032C123.356 14.3707 123.169 13.592 123.169 12.696C123.169 11.7893 123.356 11.0053 123.729 10.344C124.113 9.68267 124.631 9.17067 125.281 8.808C125.932 8.44533 126.663 8.264 127.473 8.264C128.199 8.264 128.833 8.424 129.377 8.744C129.921 9.064 130.343 9.54933 130.641 10.2C130.94 10.8507 131.089 11.6827 131.089 12.696C131.089 13.6987 130.945 14.5307 130.657 15.192C130.369 15.8427 129.953 16.328 129.409 16.648C128.876 16.968 128.231 17.128 127.473 17.128ZM127.905 15.08C128.311 15.08 128.679 14.984 129.009 14.792C129.34 14.6 129.601 14.328 129.793 13.976C129.996 13.6133 130.097 13.1867 130.097 12.696C130.097 12.1947 129.996 11.768 129.793 11.416C129.601 11.064 129.34 10.792 129.009 10.6C128.679 10.408 128.311 10.312 127.905 10.312C127.489 10.312 127.116 10.408 126.785 10.6C126.455 10.792 126.188 11.064 125.985 11.416C125.793 11.768 125.697 12.1947 125.697 12.696C125.697 13.1867 125.793 13.6133 125.985 13.976C126.188 14.328 126.455 14.6 126.785 14.792C127.116 14.984 127.489 15.08 127.905 15.08ZM130.161 17V15.24L130.209 12.68L130.049 10.136V5.128H132.545V17H130.161ZM138.867 17.128C137.885 17.128 137.021 16.936 136.275 16.552C135.539 16.168 134.968 15.6453 134.563 14.984C134.157 14.312 133.955 13.5493 133.955 12.696C133.955 11.832 134.152 11.0693 134.547 10.408C134.952 9.736 135.501 9.21333 136.195 8.84C136.888 8.456 137.672 8.264 138.547 8.264C139.389 8.264 140.147 8.44533 140.819 8.808C141.501 9.16 142.04 9.672 142.435 10.344C142.829 11.0053 143.027 11.8 143.027 12.728C143.027 12.824 143.021 12.936 143.011 13.064C143 13.1813 142.989 13.2933 142.979 13.4H135.987V11.944H141.667L140.707 12.376C140.707 11.928 140.616 11.5387 140.435 11.208C140.253 10.8773 140.003 10.6213 139.683 10.44C139.363 10.248 138.989 10.152 138.563 10.152C138.136 10.152 137.757 10.248 137.427 10.44C137.107 10.6213 136.856 10.8827 136.675 11.224C136.493 11.5547 136.403 11.9493 136.403 12.408V12.792C136.403 13.2613 136.504 13.6773 136.707 14.04C136.92 14.392 137.213 14.664 137.587 14.856C137.971 15.0373 138.419 15.128 138.931 15.128C139.389 15.128 139.789 15.0587 140.131 14.92C140.483 14.7813 140.803 14.5733 141.091 14.296L142.419 15.736C142.024 16.184 141.528 16.5307 140.931 16.776C140.333 17.0107 139.645 17.128 138.867 17.128ZM146.607 17L142.991 8.392H145.567L148.575 15.8H147.295L150.415 8.392H152.815L149.183 17H146.607Z"
        fill="white" />
    <path d="M165.5 8.24976L171 13.7498L176.5 8.24975" stroke="white" stroke-width="1.8103"
        stroke-linecap="round" stroke-linejoin="round" />
</svg>