<svg xmlns="http://www.w3.org/2000/svg" width="50" height="47" viewBox="0 0 50 47" fill="none">
  <g filter="url(#filter0_d_4_4176)">
    <path
      d="M18.5855 8.87438e-05C14.4618 -0.0215498 10.4473 3.91666 12.28 8.80696H5.36364C4.20633 8.80696 3.09642 9.26291 2.27808 10.0745C1.45974 10.8861 1 11.9869 1 13.1347V17.4624C1 18.0363 1.22987 18.5866 1.63904 18.9924C2.04821 19.3982 2.60316 19.6262 3.18182 19.6262H22.8182V13.1347H27.1818V19.6262H46.8182C47.3968 19.6262 47.9518 19.3982 48.361 18.9924C48.7701 18.5866 49 18.0363 49 17.4624V13.1347C49 11.9869 48.5403 10.8861 47.7219 10.0745C46.9036 9.26291 45.7937 8.80696 44.6364 8.80696H37.72C40.2727 1.73117 30.6727 -3.26733 26.2436 2.83473L25 4.47926L23.7564 2.79146C22.3818 0.865629 20.4836 0.0217272 18.5855 8.87438e-05ZM18.4545 4.47926C20.3964 4.47926 21.3782 6.81622 20.0036 8.17944C18.6291 9.54267 16.2727 8.56894 16.2727 6.64311C16.2727 6.06922 16.5026 5.51884 16.9118 5.11304C17.3209 4.70724 17.8759 4.47926 18.4545 4.47926ZM31.5455 4.47926C33.4873 4.47926 34.4691 6.81622 33.0945 8.17944C31.72 9.54267 29.3636 8.56894 29.3636 6.64311C29.3636 6.06922 29.5935 5.51884 30.0027 5.11304C30.4118 4.70724 30.9668 4.47926 31.5455 4.47926ZM3.18182 21.7901V39.1009C3.18182 40.2486 3.64156 41.3494 4.4599 42.161C5.27824 42.9726 6.38815 43.4286 7.54545 43.4286H42.4545C43.6119 43.4286 44.7218 42.9726 45.5401 42.161C46.3584 41.3494 46.8182 40.2486 46.8182 39.1009V21.7901H27.1818V39.1009H22.8182V21.7901H3.18182Z"
      fill="#A7DEFD" />
  </g>
  <defs>
    <filter id="filter0_d_4_4176" x="0" y="0" width="50" height="46.4286"
      filterUnits="userSpaceOnUse" color-interpolation-filters="sRGB">
      <feFlood flood-opacity="0" result="BackgroundImageFix" />
      <feColorMatrix in="SourceAlpha" type="matrix"
        values="0 0 0 0 0 0 0 0 0 0 0 0 0 0 0 0 0 0 127 0" result="hardAlpha" />
      <feOffset dy="2" />
      <feGaussianBlur stdDeviation="0.5" />
      <feComposite in2="hardAlpha" operator="out" />
      <feColorMatrix type="matrix" values="0 0 0 0 0 0 0 0 0 0 0 0 0 0 0 0 0 0 0.25 0" />
      <feBlend mode="normal" in2="BackgroundImageFix" result="effect1_dropShadow_4_4176" />
      <feBlend mode="normal" in="SourceGraphic" in2="effect1_dropShadow_4_4176" result="shape" />
    </filter>
  </defs>
</svg>