<svg xmlns="http://www.w3.org/2000/svg" width="27" height="27" viewBox="0 0 27 27" fill="none">
  <g filter="url(#filter0_dd_4_4194)">
    <mask id="path-1-outside-1_4_4194" maskUnits="userSpaceOnUse" x="3.9375" y="3.57678" width="19"
      height="19" fill="black">
      <rect fill="white" x="3.9375" y="3.57678" width="19" height="19" />
      <path fill-rule="evenodd" clip-rule="evenodd"
        d="M20.7722 13.4286C21.4625 13.4286 22.0322 13.9917 21.9243 14.6736C21.7089 16.0363 21.1419 17.3305 20.2677 18.4299C19.1306 19.86 17.5385 20.8788 15.7431 21.3253C13.9477 21.7719 12.0512 21.6207 10.3535 20.8957C9.5656 20.5592 8.84134 20.1081 8.20287 19.5621L6.87254 20.8626L5.27746 15.0431L11.2304 16.6024L9.97648 17.8282C10.3914 18.163 10.8545 18.4422 11.3541 18.6556C12.5425 19.1631 13.87 19.2689 15.1268 18.9563C16.3836 18.6437 17.4981 17.9306 18.294 16.9295C18.8267 16.2597 19.1964 15.4865 19.3827 14.6682C19.536 13.9951 20.0818 13.4286 20.7722 13.4286ZM6.21771 13.0583C5.52736 13.0583 4.95772 12.4952 5.06554 11.8133C5.28101 10.4506 5.84799 9.15635 6.72216 8.05698C7.85928 6.62691 9.45134 5.60812 11.2468 5.16158C13.0422 4.71503 14.9386 4.86621 16.6364 5.59122C17.259 5.85711 17.8419 6.19463 18.3741 6.59396L19.7444 5.25613L21.3405 11.0718L15.3838 9.51352L16.5829 8.34284C16.2857 8.1451 15.9689 7.97357 15.6358 7.83133C14.4473 7.32383 13.1199 7.218 11.8631 7.53058C10.6063 7.84316 9.49181 8.55632 8.69583 9.55737C8.16319 10.2272 7.79347 11.0004 7.60714 11.8187C7.45385 12.4918 6.90807 13.0583 6.21771 13.0583Z" />
    </mask>
    <path fill-rule="evenodd" clip-rule="evenodd"
      d="M20.7722 13.4286C21.4625 13.4286 22.0322 13.9917 21.9243 14.6736C21.7089 16.0363 21.1419 17.3305 20.2677 18.4299C19.1306 19.86 17.5385 20.8788 15.7431 21.3253C13.9477 21.7719 12.0512 21.6207 10.3535 20.8957C9.5656 20.5592 8.84134 20.1081 8.20287 19.5621L6.87254 20.8626L5.27746 15.0431L11.2304 16.6024L9.97648 17.8282C10.3914 18.163 10.8545 18.4422 11.3541 18.6556C12.5425 19.1631 13.87 19.2689 15.1268 18.9563C16.3836 18.6437 17.4981 17.9306 18.294 16.9295C18.8267 16.2597 19.1964 15.4865 19.3827 14.6682C19.536 13.9951 20.0818 13.4286 20.7722 13.4286ZM6.21771 13.0583C5.52736 13.0583 4.95772 12.4952 5.06554 11.8133C5.28101 10.4506 5.84799 9.15635 6.72216 8.05698C7.85928 6.62691 9.45134 5.60812 11.2468 5.16158C13.0422 4.71503 14.9386 4.86621 16.6364 5.59122C17.259 5.85711 17.8419 6.19463 18.3741 6.59396L19.7444 5.25613L21.3405 11.0718L15.3838 9.51352L16.5829 8.34284C16.2857 8.1451 15.9689 7.97357 15.6358 7.83133C14.4473 7.32383 13.1199 7.218 11.8631 7.53058C10.6063 7.84316 9.49181 8.55632 8.69583 9.55737C8.16319 10.2272 7.79347 11.0004 7.60714 11.8187C7.45385 12.4918 6.90807 13.0583 6.21771 13.0583Z"
      fill="white" />
    <path
      d="M21.9243 14.6736L22.4182 14.7516L21.9243 14.6736ZM20.2677 18.4299L19.8764 18.1187H19.8764L20.2677 18.4299ZM15.7431 21.3253L15.8638 21.8105V21.8105L15.7431 21.3253ZM10.3535 20.8957L10.5499 20.4359V20.4359L10.3535 20.8957ZM8.20287 19.5621L8.52782 19.1821L8.18031 18.8849L7.85334 19.2045L8.20287 19.5621ZM6.87254 20.8626L6.39033 20.9948L6.61481 21.8138L7.22206 21.2201L6.87254 20.8626ZM5.27746 15.0431L5.40416 14.5594L4.56629 14.3399L4.79524 15.1753L5.27746 15.0431ZM11.2304 16.6024L11.5799 16.96L12.2115 16.3425L11.3571 16.1187L11.2304 16.6024ZM9.97648 17.8282L9.62696 17.4707L9.22457 17.8641L9.66254 18.2174L9.97648 17.8282ZM11.3541 18.6556L11.1577 19.1154L11.3541 18.6556ZM15.1268 18.9563L15.0061 18.4711V18.4711L15.1268 18.9563ZM18.294 16.9295L18.6854 17.2407L18.294 16.9295ZM19.3827 14.6682L19.8703 14.7793L19.3827 14.6682ZM5.06554 11.8133L4.57167 11.7353V11.7353L5.06554 11.8133ZM6.72216 8.05698L7.11352 8.36817L6.72216 8.05698ZM11.2468 5.16158L11.1261 4.67636H11.1261L11.2468 5.16158ZM16.6364 5.59122L16.8327 5.13139L16.6364 5.59122ZM18.3741 6.59396L18.0741 6.9939L18.4168 7.25108L18.7234 6.95172L18.3741 6.59396ZM19.7444 5.25613L20.2266 5.1238L20.0021 4.30577L19.3951 4.89837L19.7444 5.25613ZM21.3405 11.0718L21.2139 11.5555L22.0519 11.7748L21.8226 10.9395L21.3405 11.0718ZM15.3838 9.51352L15.0345 9.15576L14.4019 9.77345L15.2573 9.99724L15.3838 9.51352ZM16.5829 8.34284L16.9322 8.7006L17.3743 8.2689L16.8599 7.92657L16.5829 8.34284ZM15.6358 7.83133L15.8321 7.37151L15.8321 7.3715L15.6358 7.83133ZM11.8631 7.53058L11.9837 8.0158L11.8631 7.53058ZM8.69583 9.55737L8.30447 9.24618L8.69583 9.55737ZM7.60714 11.8187L8.09466 11.9297V11.9297L7.60714 11.8187ZM22.4182 14.7516C22.5825 13.7128 21.7131 12.9286 20.7722 12.9286V13.9286C21.2119 13.9286 21.4818 14.2706 21.4305 14.5955L22.4182 14.7516ZM20.6591 18.7411C21.5868 17.5744 22.1892 16.1999 22.4182 14.7516L21.4305 14.5955C21.2285 15.8727 20.697 17.0867 19.8764 18.1187L20.6591 18.7411ZM15.8638 21.8105C17.7647 21.3378 19.4524 20.2586 20.6591 18.7411L19.8764 18.1187C18.8087 19.4614 17.3124 20.4198 15.6224 20.8401L15.8638 21.8105ZM10.1571 21.3555C11.9552 22.1234 13.963 22.2833 15.8638 21.8105L15.6224 20.8401C13.9324 21.2604 12.1473 21.118 10.5499 20.4359L10.1571 21.3555ZM7.87791 19.9421C8.55493 20.521 9.32254 20.9991 10.1571 21.3555L10.5499 20.4359C9.80866 20.1193 9.12775 19.6951 8.52782 19.1821L7.87791 19.9421ZM7.22206 21.2201L8.55239 19.9196L7.85334 19.2045L6.52302 20.5051L7.22206 21.2201ZM4.79524 15.1753L6.39033 20.9948L7.35476 20.7304L5.75967 14.9109L4.79524 15.1753ZM11.3571 16.1187L5.40416 14.5594L5.15076 15.5268L11.1037 17.0861L11.3571 16.1187ZM10.326 18.1858L11.5799 16.96L10.8809 16.2449L9.62696 17.4707L10.326 18.1858ZM11.5505 18.1957C11.0932 18.0004 10.6697 17.745 10.2904 17.4391L9.66254 18.2174C10.1132 18.581 10.6158 18.884 11.1577 19.1154L11.5505 18.1957ZM15.0061 18.4711C13.8547 18.7575 12.6385 18.6604 11.5505 18.1957L11.1577 19.1154C12.4465 19.6657 13.8853 19.7803 15.2475 19.4415L15.0061 18.4711ZM17.9027 16.6183C17.1762 17.532 16.1575 18.1847 15.0061 18.4711L15.2475 19.4415C16.6098 19.1027 17.8199 18.3292 18.6854 17.2407L17.9027 16.6183ZM18.8952 14.5572C18.7256 15.3022 18.3887 16.0071 17.9027 16.6183L18.6854 17.2407C19.2646 16.5123 19.6672 15.6707 19.8703 14.7793L18.8952 14.5572ZM20.7722 12.9286C19.7856 12.9286 19.085 13.724 18.8952 14.5572L19.8703 14.7793C19.9871 14.2662 20.378 13.9286 20.7722 13.9286V12.9286ZM4.57167 11.7353C4.40741 12.7741 5.27675 13.5583 6.21771 13.5583V12.5583C5.77796 12.5583 5.50803 12.2163 5.5594 11.8914L4.57167 11.7353ZM6.3308 7.74579C5.40311 8.91248 4.80067 10.287 4.57167 11.7353L5.5594 11.8914C5.76135 10.6142 6.29288 9.40022 7.11352 8.36817L6.3308 7.74579ZM11.1261 4.67636C9.22518 5.14913 7.53744 6.2283 6.3308 7.74579L7.11352 8.36817C8.18112 7.02553 9.6775 6.0671 11.3674 5.64679L11.1261 4.67636ZM16.8327 5.13139C15.0346 4.36353 13.0269 4.20361 11.1261 4.67636L11.3674 5.64679C13.0575 5.22646 14.8426 5.36889 16.44 6.05104L16.8327 5.13139ZM18.6742 6.19402C18.11 5.77067 17.4923 5.41304 16.8327 5.13139L16.44 6.05104C17.0257 6.30118 17.5738 6.61858 18.0741 6.9939L18.6742 6.19402ZM19.3951 4.89837L18.0248 6.2362L18.7234 6.95172L20.0937 5.61389L19.3951 4.89837ZM21.8226 10.9395L20.2266 5.1238L19.2622 5.38846L20.8583 11.2042L21.8226 10.9395ZM15.2573 9.99724L21.2139 11.5555L21.467 10.5881L15.5104 9.0298L15.2573 9.99724ZM16.2336 7.98508L15.0345 9.15576L15.7331 9.87128L16.9322 8.7006L16.2336 7.98508ZM15.4394 8.29116C15.7443 8.42136 16.0342 8.57829 16.3059 8.75911L16.8599 7.92657C16.5372 7.7119 16.1934 7.52579 15.8321 7.37151L15.4394 8.29116ZM11.9837 8.0158C13.1352 7.72943 14.3513 7.8265 15.4394 8.29116L15.8321 7.3715C14.5434 6.82115 13.1046 6.70658 11.7424 7.04537L11.9837 8.0158ZM9.08718 9.86856C9.81365 8.95493 10.8324 8.30215 11.9837 8.0158L11.7424 7.04537C10.3801 7.38418 9.16997 8.15771 8.30447 9.24618L9.08718 9.86856ZM8.09466 11.9297C8.26432 11.1847 8.60113 10.4798 9.08718 9.86856L8.30447 9.24618C7.72525 9.97462 7.32262 10.8162 7.11962 11.7076L8.09466 11.9297ZM6.21771 13.5583C7.20422 13.5583 7.90491 12.7629 8.09466 11.9297L7.11962 11.7076C7.00278 12.2207 6.61191 12.5583 6.21771 12.5583V13.5583Z"
      fill="black" mask="url(#path-1-outside-1_4_4194)" />
  </g>
  <defs>
    <filter id="filter0_dd_4_4194" x="0.551514" y="0.305786" width="25.8867" height="25.771"
      filterUnits="userSpaceOnUse" color-interpolation-filters="sRGB">
      <feFlood flood-opacity="0" result="BackgroundImageFix" />
      <feColorMatrix in="SourceAlpha" type="matrix"
        values="0 0 0 0 0 0 0 0 0 0 0 0 0 0 0 0 0 0 127 0" result="hardAlpha" />
      <feOffset dy="2" />
      <feComposite in2="hardAlpha" operator="out" />
      <feColorMatrix type="matrix" values="0 0 0 0 0 0 0 0 0 0 0 0 0 0 0 0 0 0 1 0" />
      <feBlend mode="normal" in2="BackgroundImageFix" result="effect1_dropShadow_4_4194" />
      <feColorMatrix in="SourceAlpha" type="matrix"
        values="0 0 0 0 0 0 0 0 0 0 0 0 0 0 0 0 0 0 127 0" result="hardAlpha" />
      <feOffset />
      <feGaussianBlur stdDeviation="2" />
      <feComposite in2="hardAlpha" operator="out" />
      <feColorMatrix type="matrix" values="0 0 0 0 0 0 0 0 0 0 0 0 0 0 0 0 0 0 0.25 0" />
      <feBlend mode="normal" in2="effect1_dropShadow_4_4194" result="effect2_dropShadow_4_4194" />
      <feBlend mode="normal" in="SourceGraphic" in2="effect2_dropShadow_4_4194" result="shape" />
    </filter>
  </defs>
</svg>