<svg width="30" height="40" viewBox="0 0 30 40" fill="none" xmlns="http://www.w3.org/2000/svg">
    <g filter="url(#filter0_d_70_1205)">
        <path
            d="M20.8849 20.1435C20.8876 20.0472 20.8876 19.9508 20.8849 19.8545L21.8829 18.6078C21.9352 18.5423 21.9714 18.4655 21.9886 18.3835C22.0058 18.3014 22.0035 18.2165 21.9819 18.1356C21.818 17.5207 21.5733 16.9303 21.2542 16.3798C21.2123 16.3078 21.1543 16.2465 21.0846 16.2009C21.0149 16.1552 20.9356 16.1265 20.8528 16.1169L19.2663 15.9404C19.2003 15.8708 19.1334 15.8039 19.0656 15.7397L18.8784 14.1492C18.8687 14.0664 18.8399 13.987 18.7941 13.9173C18.7484 13.8476 18.687 13.7896 18.6148 13.7479C18.0644 13.429 17.4739 13.1847 16.8591 13.0215C16.7781 12.9998 16.6932 12.9975 16.6112 13.0147C16.5292 13.0319 16.4523 13.0681 16.3869 13.1205L15.1435 14.1131C15.0472 14.1131 14.9508 14.1131 14.8545 14.1131L13.6078 13.1171C13.5423 13.0648 13.4655 13.0286 13.3835 13.0114C13.3014 12.9942 13.2165 12.9965 13.1356 13.0181C12.5207 13.182 11.9303 13.4267 11.3798 13.7458C11.3078 13.7877 11.2465 13.8457 11.2009 13.9154C11.1552 13.9851 11.1265 14.0644 11.1169 14.1472L10.9404 15.7364C10.8708 15.8028 10.8039 15.8697 10.7397 15.937L9.14917 16.1196C9.06637 16.1293 8.98697 16.1581 8.9173 16.2039C8.84762 16.2496 8.7896 16.311 8.74786 16.3832C8.42904 16.9337 8.18457 17.5241 8.02081 18.1389C7.99927 18.2199 7.99706 18.3049 8.01438 18.3869C8.03169 18.4689 8.06803 18.5457 8.12047 18.6111L9.11305 19.8545C9.11305 19.9508 9.11305 20.0472 9.11305 20.1435L8.11712 21.3902C8.0648 21.4557 8.02858 21.5325 8.01138 21.6145C7.99419 21.6966 7.9965 21.7815 8.01813 21.8624C8.18202 22.4773 8.42673 23.0677 8.74585 23.6182C8.78767 23.6902 8.84573 23.7515 8.9154 23.7971C8.98507 23.8427 9.06443 23.8715 9.14716 23.881L10.7337 24.0576C10.8001 24.1272 10.867 24.1941 10.9344 24.2583L11.1196 25.8488C11.1293 25.9316 11.1581 26.011 11.2039 26.0807C11.2496 26.1504 11.311 26.2084 11.3832 26.2501C11.9337 26.569 12.5241 26.8134 13.1389 26.9772C13.2199 26.9987 13.3049 27.0009 13.3869 26.9836C13.4689 26.9663 13.5457 26.93 13.6111 26.8775L14.8545 25.8849C14.9508 25.8876 15.0472 25.8876 15.1435 25.8849L16.3902 26.8829C16.4557 26.9352 16.5325 26.9714 16.6145 26.9886C16.6966 27.0058 16.7815 27.0035 16.8624 26.9819C17.4774 26.8183 18.0678 26.5736 18.6182 26.2542C18.6902 26.2123 18.7515 26.1543 18.7971 26.0846C18.8427 26.0149 18.8715 25.9356 18.881 25.8528L19.0576 24.2663C19.1272 24.2003 19.1941 24.1334 19.2583 24.0656L20.8488 23.8784C20.9316 23.8687 21.011 23.8399 21.0807 23.7941C21.1504 23.7484 21.2084 23.687 21.2501 23.6148C21.569 23.0643 21.8134 22.4739 21.9772 21.8591C21.9987 21.7781 22.0009 21.6931 21.9836 21.6111C21.9663 21.5291 21.93 21.4523 21.8775 21.3869L20.8849 20.1435ZM14.999 22.6744C14.4698 22.6744 13.9526 22.5175 13.5126 22.2235C13.0726 21.9296 12.7297 21.5117 12.5272 21.0228C12.3247 20.534 12.2717 19.996 12.375 19.477C12.4782 18.9581 12.733 18.4813 13.1072 18.1072C13.4813 17.733 13.9581 17.4782 14.477 17.375C14.996 17.2717 15.534 17.3247 16.0228 17.5272C16.5117 17.7297 16.9296 18.0726 17.2235 18.5126C17.5175 18.9526 17.6744 19.4698 17.6744 19.999C17.6744 20.7086 17.3926 21.3891 16.8908 21.8908C16.3891 22.3926 15.7086 22.6744 14.999 22.6744Z"
            fill="white" />
        <path
            d="M22.0131 18.7118L22.013 18.7119L21.0529 19.9114C21.0539 19.9698 21.0539 20.0283 21.0529 20.0867L22.0076 21.2826C22.0076 21.2826 22.0076 21.2826 22.0076 21.2826C22.0763 21.3684 22.124 21.4691 22.1467 21.5767C22.1694 21.6843 22.1665 21.7957 22.1383 21.9019L22.1382 21.902C21.9707 22.531 21.7206 23.135 21.3944 23.6983C21.3944 23.6983 21.3944 23.6983 21.3944 23.6984L21.2501 23.6148C21.2084 23.687 21.1504 23.7484 21.0807 23.7941C21.011 23.8399 20.9316 23.8687 20.8488 23.8784L22.0131 18.7118ZM22.0131 18.7118C22.0817 18.626 22.1292 18.5252 22.1517 18.4177C22.1743 18.3101 22.1713 18.1988 22.1429 18.0926M22.0131 18.7118L21.3983 16.2961M21.3983 16.2961L21.3983 16.2962C21.7249 16.8595 21.9752 17.4635 22.1429 18.0926M21.3983 16.2961C21.3434 16.2017 21.2673 16.1213 21.1759 16.0615C21.0846 16.0016 20.9805 15.9639 20.872 15.9514L20.8713 15.9513M21.3983 16.2961L20.8713 15.9513M22.1429 18.0926L21.9819 18.1356L22.1429 18.0925C22.1429 18.0926 22.1429 18.0926 22.1429 18.0926ZM20.8713 15.9513L19.3448 15.7814C19.3049 15.7403 19.2647 15.7001 19.2242 15.6608L19.0439 14.1299L20.8713 15.9513ZM11.2961 13.6017L11.2962 13.6017C11.8595 13.2752 12.4635 13.0248 13.0925 12.8571C13.0926 12.8571 13.0926 12.8571 13.0926 12.8571L13.1356 13.0181C13.2165 12.9965 13.3014 12.9942 13.3835 13.0114L11.2961 13.6017ZM11.2961 13.6017C11.2017 13.6566 11.1213 13.7327 11.0615 13.8241C11.0016 13.9154 10.9639 14.0195 10.9514 14.128L10.9513 14.1288M11.2961 13.6017L10.9513 14.1288M13.7118 12.9869L14.9129 13.9464H14.9132H14.9138H14.9143H14.9149H14.9155H14.916H14.9166H14.9172H14.9177H14.9183H14.9189H14.9194H14.92H14.9206H14.9211H14.9217H14.9222H14.9228H14.9234H14.9239H14.9245H14.9251H14.9256H14.9262H14.9268H14.9273H14.9279H14.9285H14.929H14.9296H14.9301H14.9307H14.9313H14.9318H14.9324H14.933H14.9335H14.9341H14.9347H14.9352H14.9358H14.9364H14.9369H14.9375H14.938H14.9386H14.9392H14.9397H14.9403H14.9409H14.9414H14.942H14.9426H14.9431H14.9437H14.9443H14.9448H14.9454H14.9459H14.9465H14.9471H14.9476H14.9482H14.9488H14.9493H14.9499H14.9505H14.951H14.9516H14.9522H14.9527H14.9533H14.9538H14.9544H14.955H14.9555H14.9561H14.9567H14.9572H14.9578H14.9584H14.9589H14.9595H14.9601H14.9606H14.9612H14.9617H14.9623H14.9629H14.9634H14.964H14.9646H14.9651H14.9657H14.9663H14.9668H14.9674H14.968H14.9685H14.9691H14.9697H14.9702H14.9708H14.9713H14.9719H14.9725H14.973H14.9736H14.9742H14.9747H14.9753H14.9759H14.9764H14.977H14.9776H14.9781H14.9787H14.9792H14.9798H14.9804H14.9809H14.9815H14.9821H14.9826H14.9832H14.9838H14.9843H14.9849H14.9855H14.986H14.9866H14.9871H14.9877H14.9883H14.9888H14.9894H14.99H14.9905H14.9911H14.9917H14.9922H14.9928H14.9934H14.9939H14.9945H14.995H14.9956H14.9962H14.9967H14.9973H14.9979H14.9984H14.999H14.9996H15.0001H15.0007H15.0013H15.0018H15.0024H15.0029H15.0035H15.0041H15.0046H15.0052H15.0058H15.0063H15.0069H15.0075H15.008H15.0086H15.0092H15.0097H15.0103H15.0108H15.0114H15.012H15.0125H15.0131H15.0137H15.0142H15.0148H15.0154H15.0159H15.0165H15.0171H15.0176H15.0182H15.0187H15.0193H15.0199H15.0204H15.021H15.0216H15.0221H15.0227H15.0233H15.0238H15.0244H15.025H15.0255H15.0261H15.0266H15.0272H15.0278H15.0283H15.0289H15.0295H15.03H15.0306H15.0312H15.0317H15.0323H15.0329H15.0334H15.034H15.0346H15.0351H15.0357H15.0362H15.0368H15.0374H15.0379H15.0385H15.0391H15.0396H15.0402H15.0408H15.0413H15.0419H15.0425H15.043H15.0436H15.0441H15.0447H15.0453H15.0458H15.0464H15.047H15.0475H15.0481H15.0487H15.0492H15.0498H15.0504H15.0509H15.0515H15.052H15.0526H15.0532H15.0537H15.0543H15.0549H15.0554H15.056H15.0566H15.0571H15.0577H15.0583H15.0588H15.0594H15.0599H15.0605H15.0611H15.0616H15.0622H15.0628H15.0633H15.0639H15.0645H15.065H15.0656H15.0662H15.0667H15.0673H15.0678H15.0684H15.069H15.0695H15.0701H15.0707H15.0712H15.0718H15.0724H15.0729H15.0735H15.0741H15.0746H15.0752H15.0757H15.0763H15.0769H15.0774H15.078H15.0786H15.0791H15.0797H15.0803H15.0808H15.0814H15.082H15.0825H15.0831H15.0836H15.0842H15.0848H15.0851L16.2828 12.9903C16.3687 12.9217 16.4694 12.8742 16.577 12.8516C16.6845 12.8291 16.7958 12.8321 16.902 12.8604M13.7118 12.9869L19.0439 14.1297C19.0312 14.0212 18.9934 13.9171 18.9335 13.8258C18.8735 13.7344 18.7929 13.6583 18.6983 13.6036C18.1351 13.2774 17.531 13.0274 16.902 12.8604M13.7118 12.9869C13.7118 12.9869 13.7118 12.9869 13.7118 12.9869L13.7118 12.9869ZM16.902 12.8604C16.902 12.8604 16.9021 12.8604 16.9021 12.8605L16.8591 13.0215M16.902 12.8604C16.9019 12.8604 16.9019 12.8604 16.9019 12.8604L16.8591 13.0215M16.8591 13.0215C16.7781 12.9998 16.6932 12.9975 16.6112 13.0147C16.5292 13.0319 16.4523 13.0681 16.3869 13.1205L15.1435 14.1131L16.8591 13.0215ZM10.9513 14.1288L10.7814 15.6582C10.7404 15.698 10.7004 15.738 10.6612 15.7783L9.13016 15.954L9.12991 15.9541L10.9513 14.1288ZM8.60172 23.7019L8.60166 23.7018C8.27514 23.1385 8.02477 22.5344 7.85709 21.9054M8.60172 23.7019L8.01138 21.6145C8.02858 21.5325 8.0648 21.4557 8.11712 21.3902M8.60172 23.7019C8.65656 23.7963 8.7327 23.8767 8.82408 23.9365L8.9154 23.7971M8.60172 23.7019L8.9154 23.7971M7.85709 21.9054L8.01813 21.8624L7.85711 21.9055C7.8571 21.9054 7.8571 21.9054 7.85709 21.9054ZM7.85709 21.9054C7.82874 21.7992 7.82572 21.6879 7.84826 21.5803C7.87081 21.4728 7.91831 21.372 7.98694 21.2862M7.98694 21.2862L7.9869 21.2862L8.11712 21.3902M7.98694 21.2862L8.11712 21.3902M7.98694 21.2862L8.94638 20.0851V20.0848V20.0842V20.0836V20.0831V20.0825V20.082V20.0814V20.0808V20.0803V20.0797V20.0791V20.0786V20.078V20.0774V20.0769V20.0763V20.0757V20.0752V20.0746V20.0741V20.0735V20.0729V20.0724V20.0718V20.0712V20.0707V20.0701V20.0695V20.069V20.0684V20.0678V20.0673V20.0667V20.0662V20.0656V20.065V20.0645V20.0639V20.0633V20.0628V20.0622V20.0616V20.0611V20.0605V20.0599V20.0594V20.0588V20.0583V20.0577V20.0571V20.0566V20.056V20.0554V20.0549V20.0543V20.0537V20.0532V20.0526V20.052V20.0515V20.0509V20.0504V20.0498V20.0492V20.0487V20.0481V20.0475V20.047V20.0464V20.0458V20.0453V20.0447V20.0441V20.0436V20.043V20.0425V20.0419V20.0413V20.0408V20.0402V20.0396V20.0391V20.0385V20.0379V20.0374V20.0368V20.0362V20.0357V20.0351V20.0346V20.034V20.0334V20.0329V20.0323V20.0317V20.0312V20.0306V20.03V20.0295V20.0289V20.0283V20.0278V20.0272V20.0266V20.0261V20.0255V20.025V20.0244V20.0238V20.0233V20.0227V20.0221V20.0216V20.021V20.0204V20.0199V20.0193V20.0187V20.0182V20.0176V20.0171V20.0165V20.0159V20.0154V20.0148V20.0142V20.0137V20.0131V20.0125V20.012V20.0114V20.0108V20.0103V20.0097V20.0092V20.0086V20.008V20.0075V20.0069V20.0063V20.0058V20.0052V20.0046V20.0041V20.0035V20.0029V20.0024V20.0018V20.0013V20.0007V20.0001V19.9996V19.999V19.9984V19.9979V19.9973V19.9967V19.9962V19.9956V19.995V19.9945V19.9939V19.9934V19.9928V19.9922V19.9917V19.9911V19.9905V19.99V19.9894V19.9888V19.9883V19.9877V19.9871V19.9866V19.986V19.9855V19.9849V19.9843V19.9838V19.9832V19.9826V19.9821V19.9815V19.9809V19.9804V19.9798V19.9792V19.9787V19.9781V19.9776V19.977V19.9764V19.9759V19.9753V19.9747V19.9742V19.9736V19.973V19.9725V19.9719V19.9713V19.9708V19.9702V19.9697V19.9691V19.9685V19.968V19.9674V19.9668V19.9663V19.9657V19.9651V19.9646V19.964V19.9634V19.9629V19.9623V19.9617V19.9612V19.9606V19.9601V19.9595V19.9589V19.9584V19.9578V19.9572V19.9567V19.9561V19.9555V19.955V19.9544V19.9538V19.9533V19.9527V19.9522V19.9516V19.951V19.9505V19.9499V19.9493V19.9488V19.9482V19.9476V19.9471V19.9465V19.9459V19.9454V19.9448V19.9443V19.9437V19.9431V19.9426V19.942V19.9414V19.9409V19.9403V19.9397V19.9392V19.9386V19.938V19.9375V19.9369V19.9364V19.9358V19.9352V19.9347V19.9341V19.9335V19.933V19.9324V19.9318V19.9313V19.9307V19.9301V19.9296V19.929V19.9285V19.9279V19.9273V19.9268V19.9262V19.9256V19.9251V19.9245V19.9239V19.9234V19.9228V19.9222V19.9217V19.9211V19.9206V19.92V19.9194V19.9189V19.9183V19.9177V19.9172V19.9166V19.916V19.9155V19.9149V19.9143V19.9138V19.9132V19.9129L7.99044 18.7154C7.99038 18.7153 7.99033 18.7152 7.99028 18.7152L7.99021 18.7151L8.11712 21.3902M8.9154 23.7971L8.82408 23.9365C8.91545 23.9964 9.01953 24.0341 9.12803 24.0466L9.12873 24.0467M8.9154 23.7971L9.12873 24.0467M9.12873 24.0467L10.6555 24.2166C10.6954 24.2576 10.7354 24.2977 10.7757 24.3369L10.9541 25.8681M9.12873 24.0467L10.9541 25.8681M13.0961 27.1383L13.096 27.1382C12.467 26.9707 11.863 26.7206 11.2997 26.3944C11.2997 26.3944 11.2997 26.3944 11.2996 26.3944L11.3832 26.2501C11.311 26.2084 11.2496 26.1504 11.2039 26.0807L13.0961 27.1383ZM13.0961 27.1383C13.2023 27.1665 13.3137 27.1694 13.4213 27.1467C13.5289 27.124 13.6296 27.0763 13.7154 27.0076L14.9113 26.0529C14.9697 26.0539 15.0282 26.0539 15.0866 26.0529L16.2861 27.013L16.2862 27.0131M13.0961 27.1383L16.2862 27.0131M10.9541 25.8681C10.9541 25.8681 10.9541 25.8681 10.9541 25.8681L10.9541 25.8681ZM16.2862 27.0131C16.372 27.0817 16.4728 27.1292 16.5803 27.1517M16.2862 27.0131L16.5803 27.1517M16.5803 27.1517C16.6879 27.1743 16.7992 27.1713 16.9053 27.1429L16.5803 27.1517ZM19.3372 24.2242L20.8681 24.0439L16.9055 27.1429C17.5346 26.9755 18.1387 26.7251 18.7018 26.3983L18.7019 26.3983C18.7963 26.3434 18.8767 26.2673 18.9365 26.1759C18.9964 26.0846 19.0341 25.9805 19.0466 25.872L19.0467 25.8713L19.2166 24.3448C19.2577 24.3049 19.2979 24.2647 19.3372 24.2242ZM7.85976 18.096L7.85974 18.0961L8.74786 16.3832L8.60362 16.2996C8.60361 16.2997 8.6036 16.2997 8.60359 16.2997C8.27742 16.863 8.0273 17.467 7.85976 18.096ZM14.999 22.5078C14.5028 22.5078 14.0178 22.3606 13.6052 22.085C13.1926 21.8093 12.8711 21.4175 12.6812 20.9591C12.4913 20.5006 12.4416 19.9962 12.5384 19.5096C12.6352 19.0229 12.8742 18.5759 13.225 18.225C13.5759 17.8742 14.0229 17.6352 14.5096 17.5384C14.9962 17.4416 15.5006 17.4913 15.9591 17.6812C16.4175 17.8711 16.8093 18.1926 17.085 18.6052C17.3606 19.0178 17.5078 19.5028 17.5078 19.999C17.5078 20.6644 17.2434 21.3025 16.773 21.773C16.3025 22.2434 15.6644 22.5078 14.999 22.5078Z"
            stroke="black" stroke-width="0.333333" />
    </g>
    <defs>
        <filter id="filter0_d_70_1205" x="7.66675" y="12.6666" width="14.6665" height="15.3334"
            filterUnits="userSpaceOnUse" color-interpolation-filters="sRGB">
            <feFlood flood-opacity="0" result="BackgroundImageFix" />
            <feColorMatrix in="SourceAlpha" type="matrix"
                values="0 0 0 0 0 0 0 0 0 0 0 0 0 0 0 0 0 0 127 0" result="hardAlpha" />
            <feOffset dy="0.666667" />
            <feComposite in2="hardAlpha" operator="out" />
            <feColorMatrix type="matrix" values="0 0 0 0 0 0 0 0 0 0 0 0 0 0 0 0 0 0 0.39 0" />
            <feBlend mode="normal" in2="BackgroundImageFix" result="effect1_dropShadow_70_1205" />
            <feBlend mode="normal" in="SourceGraphic" in2="effect1_dropShadow_70_1205"
                result="shape" />
        </filter>
    </defs>
</svg>