<svg xmlns="http://www.w3.org/2000/svg" width="28" height="26" viewBox="0 0 28 26" fill="none">
    <path fill-rule="evenodd" clip-rule="evenodd"
        d="M0 0.0129395H8.41022L11.3038 4.63617C8.77783 5.19714 6.54687 6.53009 4.87718 8.37152L0 0.0129395ZM23.1212 8.37382L27.9997 0.0129395H19.5895L16.6955 4.63684C19.2213 5.19844 21.4519 6.53193 23.1212 8.37382ZM23.6236 16.4631C23.6236 21.7231 19.3142 25.9871 13.9984 25.9871C8.68259 25.9871 4.37326 21.7231 4.37326 16.4631C4.37326 11.2032 8.68259 6.93915 13.9984 6.93915C19.3142 6.93915 23.6236 11.2032 23.6236 16.4631ZM7.05517 16.4631C7.05517 20.2575 10.1638 23.3334 13.9984 23.3334C17.8331 23.3334 20.9417 20.2575 20.9417 16.4631C20.9417 12.6688 17.8331 9.59287 13.9984 9.59287C10.1638 9.59287 7.05517 12.6688 7.05517 16.4631ZM14.9566 11.7409C14.6651 10.8036 13.3385 10.8036 13.0469 11.7409L12.4524 13.652C12.3223 14.0701 11.9354 14.355 11.4975 14.355H9.48413C8.52597 14.355 8.11635 15.5724 8.87963 16.1516L10.5823 17.4436C10.9176 17.6981 11.0577 18.1353 10.9326 18.5373L10.3001 20.5705C10.0111 21.4995 11.0844 22.2523 11.8595 21.6642L13.3973 20.4972C13.7546 20.226 14.2489 20.226 14.6063 20.4972L16.1441 21.6642C16.9191 22.2523 17.9924 21.4995 17.7034 20.5705L17.0709 18.5373C16.9459 18.1353 17.0859 17.6981 17.4213 17.4436L19.1239 16.1516C19.8872 15.5724 19.4776 14.355 18.5194 14.355H16.506C16.0682 14.355 15.6812 14.0701 15.5512 13.652L14.9566 11.7409Z"
        fill="#F8C945" />
</svg>