<svg width="0" height="0" class="hidden">
    <symbol fill="none" xmlns="http://www.w3.org/2000/svg" viewBox="0 0 22 22" id="close">
        <path d="M16.4998 5.49988L5.49976 16.4999" stroke="white" stroke-width="1.8103"
            stroke-linecap="round" stroke-linejoin="round"></path>
        <path d="M5.49951 5.49988L16.4995 16.4999" stroke="white" stroke-width="1.8103"
            stroke-linecap="round" stroke-linejoin="round"></path>
    </symbol>
    <symbol xmlns="http://www.w3.org/2000/svg" fill="none" viewBox="0 0 18 23" id="copy">
        <g filter="url(#filter0_d_4_4190)">
            <path
                d="M12.24 0.428589H8.346C6.582 0.428589 5.184 0.428589 4.091 0.576589C2.965 0.728589 2.054 1.04859 1.336 1.76959C0.617 2.49059 0.298 3.40559 0.147 4.53559C7.45058e-08 5.63359 0 7.03659 0 8.80759V14.6456C0 16.1536 0.92 17.4456 2.227 17.9876C2.16 17.0776 2.16 15.8026 2.16 14.7406V9.73059C2.16 8.44959 2.16 7.34459 2.278 6.46059C2.405 5.51259 2.691 4.60459 3.425 3.86759C4.159 3.13059 5.064 2.84359 6.008 2.71559C6.888 2.59759 7.988 2.59759 9.265 2.59759H12.335C13.611 2.59759 14.709 2.59759 15.59 2.71559C15.3261 2.04188 14.8653 1.46333 14.2678 1.05537C13.6702 0.647417 12.9635 0.428995 12.24 0.428589Z"
                fill="white"></path>
            <path
                d="M3.6 9.82559C3.6 7.09959 3.6 5.73659 4.444 4.88959C5.287 4.04259 6.644 4.04259 9.36 4.04259H12.24C14.955 4.04259 16.313 4.04259 17.157 4.88959C18.001 5.73659 18 7.09959 18 9.82559V14.6456C18 17.3716 18 18.7346 17.157 19.5816C16.313 20.4286 14.955 20.4286 12.24 20.4286H9.36C6.645 20.4286 5.287 20.4286 4.444 19.5816C3.6 18.7346 3.6 17.3716 3.6 14.6456V9.82559Z"
                fill="white"></path>
            <path
                d="M4.11776 0.774791L4.11784 0.77478C5.19438 0.629009 6.57664 0.628589 8.346 0.628589H12.2399C12.24 0.628589 12.24 0.628589 12.24 0.628589C12.9233 0.628995 13.5906 0.835281 14.155 1.22055C14.6249 1.54138 15.0053 1.97393 15.2633 2.47706C14.4364 2.39759 13.4517 2.39759 12.3474 2.39759H12.335H9.265H9.25251C7.98552 2.39759 6.87467 2.39759 5.98142 2.51736L5.98113 2.5174C5.01509 2.64839 4.0607 2.94587 3.28329 3.72646C2.50602 4.5069 2.2097 5.46414 2.07977 6.43403L2.07976 6.43413C1.96 7.33132 1.96 8.44711 1.96 9.71817V9.73059V14.7406V14.7462C1.96 15.6792 1.96 16.7849 2.00628 17.6622C0.931756 17.0884 0.2 15.9529 0.2 14.6456V8.80759C0.2 7.03129 0.200411 5.64385 0.345231 4.56213L0.345238 4.56208C0.493297 3.45409 0.801942 2.58837 1.47762 1.91081L1.47772 1.91072C2.15234 1.23327 3.01397 0.923793 4.11776 0.774791ZM4.58567 5.03076L4.58576 5.03067C4.96393 4.65071 5.4646 4.44952 6.22639 4.34667C6.99402 4.24302 7.99632 4.24259 9.36 4.24259H12.24C13.6032 4.24259 14.6055 4.24302 15.3734 4.34667C16.1354 4.44953 16.6366 4.65073 17.0153 5.03076C17.3941 5.41085 17.5945 5.91412 17.6968 6.67946C17.7998 7.45049 17.8 8.45692 17.8 9.82559V14.6456C17.8 16.0142 17.7996 17.0207 17.6964 17.7917C17.594 18.557 17.3936 19.0604 17.0152 19.4405C16.6366 19.8205 16.1354 20.0217 15.3734 20.1245C14.6055 20.2282 13.6032 20.2286 12.24 20.2286H9.36C7.99682 20.2286 6.99452 20.2282 6.22676 20.1245C5.46482 20.0216 4.96392 19.8205 4.58576 19.4405L4.58567 19.4404C4.20689 19.0603 4.00627 18.557 3.90373 17.7917C3.80042 17.0206 3.8 16.0142 3.8 14.6456V9.82559C3.8 8.45695 3.80042 7.45053 3.90373 6.67952C4.00627 5.91421 4.20689 5.41088 4.58567 5.03076Z"
                stroke="black" stroke-width="0.4"></path>
        </g>
        <defs>
            <filter id="filter0_d_4_4190" x="0" y="0.428589" width="18" height="22"
                filterUnits="userSpaceOnUse" color-interpolation-filters="sRGB">
                <feFlood flood-opacity="0" result="BackgroundImageFix"></feFlood>
                <feColorMatrix in="SourceAlpha" type="matrix"
                    values="0 0 0 0 0 0 0 0 0 0 0 0 0 0 0 0 0 0 127 0" result="hardAlpha"></feColorMatrix>
                <feOffset dy="2"></feOffset>
                <feComposite in2="hardAlpha" operator="out"></feComposite>
                <feColorMatrix type="matrix" values="0 0 0 0 0 0 0 0 0 0 0 0 0 0 0 0 0 0 1 0"></feColorMatrix>
                <feBlend mode="normal" in2="BackgroundImageFix" result="effect1_dropShadow_4_4190"></feBlend>
                <feBlend mode="normal" in="SourceGraphic" in2="effect1_dropShadow_4_4190"
                    result="shape"></feBlend>
            </filter>
        </defs>
    </symbol>
    <symbol fill="none" xmlns="http://www.w3.org/2000/svg" viewBox="0 0 182 22" id="expand">
        <path
            d="M9.32628 5.8H11.9183V17H9.32628V5.8ZM4.23828 17H1.64628V5.8H4.23828V17ZM9.51828 12.408H4.04628V10.216H9.51828V12.408ZM19.4113 17V15.32L19.2513 14.952V11.944C19.2513 11.4107 19.0859 10.9947 18.7553 10.696C18.4353 10.3973 17.9393 10.248 17.2673 10.248C16.8086 10.248 16.3553 10.3227 15.9073 10.472C15.4699 10.6107 15.0966 10.8027 14.7873 11.048L13.8913 9.304C14.3606 8.97333 14.9259 8.71733 15.5873 8.536C16.2486 8.35467 16.9206 8.264 17.6033 8.264C18.9153 8.264 19.9339 8.57333 20.6593 9.192C21.3846 9.81067 21.7473 10.776 21.7473 12.088V17H19.4113ZM16.7873 17.128C16.1153 17.128 15.5393 17.016 15.0593 16.792C14.5793 16.5573 14.2113 16.2427 13.9553 15.848C13.6993 15.4533 13.5713 15.0107 13.5713 14.52C13.5713 14.008 13.6939 13.56 13.9393 13.176C14.1953 12.792 14.5953 12.4933 15.1393 12.28C15.6833 12.056 16.3926 11.944 17.2673 11.944H19.5553V13.4H17.5393C16.9526 13.4 16.5473 13.496 16.3233 13.688C16.1099 13.88 16.0033 14.12 16.0033 14.408C16.0033 14.728 16.1259 14.984 16.3713 15.176C16.6273 15.3573 16.9739 15.448 17.4113 15.448C17.8273 15.448 18.2006 15.352 18.5313 15.16C18.8619 14.9573 19.1019 14.664 19.2513 14.28L19.6353 15.432C19.4539 15.9867 19.1233 16.408 18.6433 16.696C18.1633 16.984 17.5446 17.128 16.7873 17.128ZM34.7694 8.264C35.4521 8.264 36.0547 8.40267 36.5774 8.68C37.1107 8.94667 37.5267 9.36267 37.8254 9.928C38.1347 10.4827 38.2894 11.1973 38.2894 12.072V17H35.7934V12.456C35.7934 11.7627 35.6494 11.2507 35.3614 10.92C35.0734 10.5893 34.6681 10.424 34.1454 10.424C33.7827 10.424 33.4574 10.5093 33.1694 10.68C32.8814 10.84 32.6574 11.0853 32.4974 11.416C32.3374 11.7467 32.2574 12.168 32.2574 12.68V17H29.7614V12.456C29.7614 11.7627 29.6174 11.2507 29.3294 10.92C29.0521 10.5893 28.6521 10.424 28.1294 10.424C27.7667 10.424 27.4414 10.5093 27.1534 10.68C26.8654 10.84 26.6414 11.0853 26.4814 11.416C26.3214 11.7467 26.2414 12.168 26.2414 12.68V17H23.7454V8.392H26.1294V10.744L25.6814 10.056C25.9801 9.46933 26.4014 9.02667 26.9454 8.728C27.5001 8.41867 28.1294 8.264 28.8334 8.264C29.6227 8.264 30.3107 8.46667 30.8974 8.872C31.4947 9.26667 31.8894 9.87467 32.0814 10.696L31.2014 10.456C31.4894 9.784 31.9481 9.25067 32.5774 8.856C33.2174 8.46133 33.9481 8.264 34.7694 8.264ZM43.1618 17.128C42.4258 17.128 41.7165 17.0427 41.0338 16.872C40.3618 16.6907 39.8285 16.4667 39.4338 16.2L40.2658 14.408C40.6605 14.6533 41.1245 14.856 41.6578 15.016C42.2018 15.1653 42.7351 15.24 43.2578 15.24C43.8338 15.24 44.2391 15.1707 44.4738 15.032C44.7191 14.8933 44.8418 14.7013 44.8418 14.456C44.8418 14.2533 44.7458 14.104 44.5538 14.008C44.3725 13.9013 44.1271 13.8213 43.8178 13.768C43.5085 13.7147 43.1671 13.6613 42.7938 13.608C42.4311 13.5547 42.0631 13.4853 41.6898 13.4C41.3165 13.304 40.9751 13.1653 40.6658 12.984C40.3565 12.8027 40.1058 12.5573 39.9138 12.248C39.7325 11.9387 39.6418 11.5387 39.6418 11.048C39.6418 10.504 39.7965 10.024 40.1058 9.608C40.4258 9.192 40.8845 8.86667 41.4818 8.632C42.0791 8.38667 42.7938 8.264 43.6258 8.264C44.2125 8.264 44.8098 8.328 45.4178 8.456C46.0258 8.584 46.5325 8.77067 46.9378 9.016L46.1058 10.792C45.6898 10.5467 45.2685 10.3813 44.8418 10.296C44.4258 10.2 44.0205 10.152 43.6258 10.152C43.0711 10.152 42.6658 10.2267 42.4098 10.376C42.1538 10.5253 42.0258 10.7173 42.0258 10.952C42.0258 11.1653 42.1165 11.3253 42.2978 11.432C42.4898 11.5387 42.7405 11.624 43.0498 11.688C43.3591 11.752 43.6951 11.8107 44.0578 11.864C44.4311 11.9067 44.8045 11.976 45.1778 12.072C45.5511 12.168 45.8871 12.3067 46.1858 12.488C46.4951 12.6587 46.7458 12.8987 46.9378 13.208C47.1298 13.5067 47.2258 13.9013 47.2258 14.392C47.2258 14.9253 47.0658 15.4 46.7458 15.816C46.4258 16.2213 45.9618 16.5413 45.3538 16.776C44.7565 17.0107 44.0258 17.128 43.1618 17.128ZM52.0249 17.128C51.0116 17.128 50.2223 16.872 49.6569 16.36C49.0916 15.8373 48.8089 15.064 48.8089 14.04V6.488H51.3049V14.008C51.3049 14.3707 51.4009 14.6533 51.5929 14.856C51.7849 15.048 52.0463 15.144 52.3769 15.144C52.7716 15.144 53.1076 15.0373 53.3849 14.824L54.0569 16.584C53.8009 16.7653 53.4916 16.904 53.1289 17C52.7769 17.0853 52.4089 17.128 52.0249 17.128ZM47.4809 10.504V8.584H53.4489V10.504H47.4809ZM59.2036 17.128C58.2222 17.128 57.3582 16.936 56.6116 16.552C55.8756 16.168 55.3049 15.6453 54.8996 14.984C54.4942 14.312 54.2916 13.5493 54.2916 12.696C54.2916 11.832 54.4889 11.0693 54.8836 10.408C55.2889 9.736 55.8382 9.21333 56.5316 8.84C57.2249 8.456 58.0089 8.264 58.8836 8.264C59.7262 8.264 60.4836 8.44533 61.1556 8.808C61.8382 9.16 62.3769 9.672 62.7716 10.344C63.1662 11.0053 63.3636 11.8 63.3636 12.728C63.3636 12.824 63.3582 12.936 63.3476 13.064C63.3369 13.1813 63.3262 13.2933 63.3156 13.4H56.3236V11.944H62.0036L61.0436 12.376C61.0436 11.928 60.9529 11.5387 60.7716 11.208C60.5902 10.8773 60.3396 10.6213 60.0196 10.44C59.6996 10.248 59.3262 10.152 58.8996 10.152C58.4729 10.152 58.0942 10.248 57.7636 10.44C57.4436 10.6213 57.1929 10.8827 57.0116 11.224C56.8302 11.5547 56.7396 11.9493 56.7396 12.408V12.792C56.7396 13.2613 56.8409 13.6773 57.0436 14.04C57.2569 14.392 57.5502 14.664 57.9236 14.856C58.3076 15.0373 58.7556 15.128 59.2676 15.128C59.7262 15.128 60.1262 15.0587 60.4676 14.92C60.8196 14.7813 61.1396 14.5733 61.4276 14.296L62.7556 15.736C62.3609 16.184 61.8649 16.5307 61.2676 16.776C60.6702 17.0107 59.9822 17.128 59.2036 17.128ZM64.7644 17V8.392H67.1484V10.824L66.8124 10.12C67.0684 9.512 67.4791 9.05333 68.0444 8.744C68.6098 8.424 69.2978 8.264 70.1084 8.264V10.568C70.0018 10.5573 69.9058 10.552 69.8204 10.552C69.7351 10.5413 69.6444 10.536 69.5484 10.536C68.8658 10.536 68.3111 10.7333 67.8844 11.128C67.4684 11.512 67.2604 12.1147 67.2604 12.936V17H64.7644ZM81.2486 17.192C80.3632 17.192 79.5472 17.0533 78.8006 16.776C78.0646 16.488 77.4192 16.0827 76.8646 15.56C76.3206 15.0373 75.8939 14.424 75.5846 13.72C75.2859 13.016 75.1366 12.2427 75.1366 11.4C75.1366 10.5573 75.2859 9.784 75.5846 9.08C75.8939 8.376 76.3259 7.76267 76.8806 7.24C77.4352 6.71733 78.0859 6.31733 78.8326 6.04C79.5792 5.752 80.4006 5.608 81.2966 5.608C82.2886 5.608 83.1792 5.77333 83.9686 6.104C84.7686 6.43467 85.4406 6.91467 85.9846 7.544L84.3206 9.08C83.9152 8.65333 83.4726 8.33867 82.9926 8.136C82.5126 7.92267 81.9899 7.816 81.4246 7.816C80.8806 7.816 80.3846 7.90133 79.9366 8.072C79.4886 8.24267 79.0992 8.488 78.7686 8.808C78.4486 9.128 78.1979 9.50667 78.0166 9.944C77.8459 10.3813 77.7606 10.8667 77.7606 11.4C77.7606 11.9227 77.8459 12.4027 78.0166 12.84C78.1979 13.2773 78.4486 13.6613 78.7686 13.992C79.0992 14.312 79.4832 14.5573 79.9206 14.728C80.3686 14.8987 80.8592 14.984 81.3926 14.984C81.9046 14.984 82.4006 14.904 82.8806 14.744C83.3712 14.5733 83.8459 14.2907 84.3046 13.896L85.7766 15.768C85.1686 16.2267 84.4592 16.5787 83.6486 16.824C82.8486 17.0693 82.0486 17.192 81.2486 17.192ZM83.4086 15.432V11.224H85.7766V15.768L83.4086 15.432ZM93.0275 17V15.32L92.8675 14.952V11.944C92.8675 11.4107 92.7021 10.9947 92.3715 10.696C92.0515 10.3973 91.5555 10.248 90.8835 10.248C90.4248 10.248 89.9715 10.3227 89.5235 10.472C89.0861 10.6107 88.7128 10.8027 88.4035 11.048L87.5075 9.304C87.9768 8.97333 88.5421 8.71733 89.2035 8.536C89.8648 8.35467 90.5368 8.264 91.2195 8.264C92.5315 8.264 93.5501 8.57333 94.2755 9.192C95.0008 9.81067 95.3635 10.776 95.3635 12.088V17H93.0275ZM90.4035 17.128C89.7315 17.128 89.1555 17.016 88.6755 16.792C88.1955 16.5573 87.8275 16.2427 87.5715 15.848C87.3155 15.4533 87.1875 15.0107 87.1875 14.52C87.1875 14.008 87.3101 13.56 87.5555 13.176C87.8115 12.792 88.2115 12.4933 88.7555 12.28C89.2995 12.056 90.0088 11.944 90.8835 11.944H93.1715V13.4H91.1555C90.5688 13.4 90.1635 13.496 89.9395 13.688C89.7261 13.88 89.6195 14.12 89.6195 14.408C89.6195 14.728 89.7421 14.984 89.9875 15.176C90.2435 15.3573 90.5901 15.448 91.0275 15.448C91.4435 15.448 91.8168 15.352 92.1475 15.16C92.4781 14.9573 92.7181 14.664 92.8675 14.28L93.2515 15.432C93.0701 15.9867 92.7395 16.408 92.2595 16.696C91.7795 16.984 91.1608 17.128 90.4035 17.128ZM108.386 8.264C109.068 8.264 109.671 8.40267 110.194 8.68C110.727 8.94667 111.143 9.36267 111.442 9.928C111.751 10.4827 111.906 11.1973 111.906 12.072V17H109.41V12.456C109.41 11.7627 109.266 11.2507 108.978 10.92C108.69 10.5893 108.284 10.424 107.762 10.424C107.399 10.424 107.074 10.5093 106.786 10.68C106.498 10.84 106.274 11.0853 106.114 11.416C105.954 11.7467 105.874 12.168 105.874 12.68V17H103.378V12.456C103.378 11.7627 103.234 11.2507 102.946 10.92C102.668 10.5893 102.268 10.424 101.746 10.424C101.383 10.424 101.058 10.5093 100.77 10.68C100.482 10.84 100.258 11.0853 100.098 11.416C99.9376 11.7467 99.8576 12.168 99.8576 12.68V17H97.3616V8.392H99.7456V10.744L99.2976 10.056C99.5962 9.46933 100.018 9.02667 100.562 8.728C101.116 8.41867 101.746 8.264 102.45 8.264C103.239 8.264 103.927 8.46667 104.514 8.872C105.111 9.26667 105.506 9.87467 105.698 10.696L104.818 10.456C105.106 9.784 105.564 9.25067 106.194 8.856C106.834 8.46133 107.564 8.264 108.386 8.264ZM118.216 17.128C117.235 17.128 116.371 16.936 115.624 16.552C114.888 16.168 114.318 15.6453 113.912 14.984C113.507 14.312 113.304 13.5493 113.304 12.696C113.304 11.832 113.502 11.0693 113.896 10.408C114.302 9.736 114.851 9.21333 115.544 8.84C116.238 8.456 117.022 8.264 117.896 8.264C118.739 8.264 119.496 8.44533 120.168 8.808C120.851 9.16 121.39 9.672 121.784 10.344C122.179 11.0053 122.376 11.8 122.376 12.728C122.376 12.824 122.371 12.936 122.36 13.064C122.35 13.1813 122.339 13.2933 122.328 13.4H115.336V11.944H121.016L120.056 12.376C120.056 11.928 119.966 11.5387 119.784 11.208C119.603 10.8773 119.352 10.6213 119.032 10.44C118.712 10.248 118.339 10.152 117.912 10.152C117.486 10.152 117.107 10.248 116.776 10.44C116.456 10.6213 116.206 10.8827 116.024 11.224C115.843 11.5547 115.752 11.9493 115.752 12.408V12.792C115.752 13.2613 115.854 13.6773 116.056 14.04C116.27 14.392 116.563 14.664 116.936 14.856C117.32 15.0373 117.768 15.128 118.28 15.128C118.739 15.128 119.139 15.0587 119.48 14.92C119.832 14.7813 120.152 14.5733 120.44 14.296L121.768 15.736C121.374 16.184 120.878 16.5307 120.28 16.776C119.683 17.0107 118.995 17.128 118.216 17.128ZM127.473 17.128C126.663 17.128 125.932 16.9467 125.281 16.584C124.631 16.2107 124.113 15.6933 123.729 15.032C123.356 14.3707 123.169 13.592 123.169 12.696C123.169 11.7893 123.356 11.0053 123.729 10.344C124.113 9.68267 124.631 9.17067 125.281 8.808C125.932 8.44533 126.663 8.264 127.473 8.264C128.199 8.264 128.833 8.424 129.377 8.744C129.921 9.064 130.343 9.54933 130.641 10.2C130.94 10.8507 131.089 11.6827 131.089 12.696C131.089 13.6987 130.945 14.5307 130.657 15.192C130.369 15.8427 129.953 16.328 129.409 16.648C128.876 16.968 128.231 17.128 127.473 17.128ZM127.905 15.08C128.311 15.08 128.679 14.984 129.009 14.792C129.34 14.6 129.601 14.328 129.793 13.976C129.996 13.6133 130.097 13.1867 130.097 12.696C130.097 12.1947 129.996 11.768 129.793 11.416C129.601 11.064 129.34 10.792 129.009 10.6C128.679 10.408 128.311 10.312 127.905 10.312C127.489 10.312 127.116 10.408 126.785 10.6C126.455 10.792 126.188 11.064 125.985 11.416C125.793 11.768 125.697 12.1947 125.697 12.696C125.697 13.1867 125.793 13.6133 125.985 13.976C126.188 14.328 126.455 14.6 126.785 14.792C127.116 14.984 127.489 15.08 127.905 15.08ZM130.161 17V15.24L130.209 12.68L130.049 10.136V5.128H132.545V17H130.161ZM138.867 17.128C137.885 17.128 137.021 16.936 136.275 16.552C135.539 16.168 134.968 15.6453 134.563 14.984C134.157 14.312 133.955 13.5493 133.955 12.696C133.955 11.832 134.152 11.0693 134.547 10.408C134.952 9.736 135.501 9.21333 136.195 8.84C136.888 8.456 137.672 8.264 138.547 8.264C139.389 8.264 140.147 8.44533 140.819 8.808C141.501 9.16 142.04 9.672 142.435 10.344C142.829 11.0053 143.027 11.8 143.027 12.728C143.027 12.824 143.021 12.936 143.011 13.064C143 13.1813 142.989 13.2933 142.979 13.4H135.987V11.944H141.667L140.707 12.376C140.707 11.928 140.616 11.5387 140.435 11.208C140.253 10.8773 140.003 10.6213 139.683 10.44C139.363 10.248 138.989 10.152 138.563 10.152C138.136 10.152 137.757 10.248 137.427 10.44C137.107 10.6213 136.856 10.8827 136.675 11.224C136.493 11.5547 136.403 11.9493 136.403 12.408V12.792C136.403 13.2613 136.504 13.6773 136.707 14.04C136.92 14.392 137.213 14.664 137.587 14.856C137.971 15.0373 138.419 15.128 138.931 15.128C139.389 15.128 139.789 15.0587 140.131 14.92C140.483 14.7813 140.803 14.5733 141.091 14.296L142.419 15.736C142.024 16.184 141.528 16.5307 140.931 16.776C140.333 17.0107 139.645 17.128 138.867 17.128ZM146.607 17L142.991 8.392H145.567L148.575 15.8H147.295L150.415 8.392H152.815L149.183 17H146.607Z"
            fill="white"></path>
        <path d="M165.5 8.24976L171 13.7498L176.5 8.24975" stroke="white" stroke-width="1.8103"
            stroke-linecap="round" stroke-linejoin="round"></path>
    </symbol>
    <symbol xmlns="http://www.w3.org/2000/svg" fill="none" viewBox="0 0 50 47" id="gift">
        <g filter="url(#filter0_d_4_4176)">
            <path
                d="M18.5855 8.87438e-05C14.4618 -0.0215498 10.4473 3.91666 12.28 8.80696H5.36364C4.20633 8.80696 3.09642 9.26291 2.27808 10.0745C1.45974 10.8861 1 11.9869 1 13.1347V17.4624C1 18.0363 1.22987 18.5866 1.63904 18.9924C2.04821 19.3982 2.60316 19.6262 3.18182 19.6262H22.8182V13.1347H27.1818V19.6262H46.8182C47.3968 19.6262 47.9518 19.3982 48.361 18.9924C48.7701 18.5866 49 18.0363 49 17.4624V13.1347C49 11.9869 48.5403 10.8861 47.7219 10.0745C46.9036 9.26291 45.7937 8.80696 44.6364 8.80696H37.72C40.2727 1.73117 30.6727 -3.26733 26.2436 2.83473L25 4.47926L23.7564 2.79146C22.3818 0.865629 20.4836 0.0217272 18.5855 8.87438e-05ZM18.4545 4.47926C20.3964 4.47926 21.3782 6.81622 20.0036 8.17944C18.6291 9.54267 16.2727 8.56894 16.2727 6.64311C16.2727 6.06922 16.5026 5.51884 16.9118 5.11304C17.3209 4.70724 17.8759 4.47926 18.4545 4.47926ZM31.5455 4.47926C33.4873 4.47926 34.4691 6.81622 33.0945 8.17944C31.72 9.54267 29.3636 8.56894 29.3636 6.64311C29.3636 6.06922 29.5935 5.51884 30.0027 5.11304C30.4118 4.70724 30.9668 4.47926 31.5455 4.47926ZM3.18182 21.7901V39.1009C3.18182 40.2486 3.64156 41.3494 4.4599 42.161C5.27824 42.9726 6.38815 43.4286 7.54545 43.4286H42.4545C43.6119 43.4286 44.7218 42.9726 45.5401 42.161C46.3584 41.3494 46.8182 40.2486 46.8182 39.1009V21.7901H27.1818V39.1009H22.8182V21.7901H3.18182Z"
                fill="#A7DEFD"></path>
        </g>
        <defs>
            <filter id="filter0_d_4_4176" x="0" y="0" width="50" height="46.4286"
                filterUnits="userSpaceOnUse" color-interpolation-filters="sRGB">
                <feFlood flood-opacity="0" result="BackgroundImageFix"></feFlood>
                <feColorMatrix in="SourceAlpha" type="matrix"
                    values="0 0 0 0 0 0 0 0 0 0 0 0 0 0 0 0 0 0 127 0" result="hardAlpha"></feColorMatrix>
                <feOffset dy="2"></feOffset>
                <feGaussianBlur stdDeviation="0.5"></feGaussianBlur>
                <feComposite in2="hardAlpha" operator="out"></feComposite>
                <feColorMatrix type="matrix" values="0 0 0 0 0 0 0 0 0 0 0 0 0 0 0 0 0 0 0.25 0"></feColorMatrix>
                <feBlend mode="normal" in2="BackgroundImageFix" result="effect1_dropShadow_4_4176"></feBlend>
                <feBlend mode="normal" in="SourceGraphic" in2="effect1_dropShadow_4_4176"
                    result="shape"></feBlend>
            </filter>
        </defs>
    </symbol>
    <symbol id="meatballs" fill="none" xmlns="http://www.w3.org/2000/svg" viewBox="0 0 22 22">
        <circle cx="11.0007" cy="10.9998" r="0.916666" transform="rotate(-90 11.0007 10.9998)"
            stroke="white" stroke-width="1.8103" stroke-linecap="round"></circle>
        <ellipse cx="11.0007" cy="16.5001" rx="0.916667" ry="0.916666"
            transform="rotate(-90 11.0007 16.5001)" stroke="white" stroke-width="1.8103"
            stroke-linecap="round"></ellipse>
        <ellipse cx="11.0007" cy="5.49996" rx="0.916667" ry="0.916666"
            transform="rotate(-90 11.0007 5.49996)" stroke="white" stroke-width="1.8103"
            stroke-linecap="round"></ellipse>
    </symbol>
    <symbol xmlns="http://www.w3.org/2000/svg" fill="none" viewBox="0 0 27 27" id="refresh">
        <g filter="url(#filter0_dd_4_4194)">
            <mask id="path-1-outside-1_4_4194" maskUnits="userSpaceOnUse" x="3.9375" y="3.57678"
                width="19" height="19" fill="black">
                <rect fill="white" x="3.9375" y="3.57678" width="19" height="19"></rect>
                <path fill-rule="evenodd" clip-rule="evenodd"
                    d="M20.7722 13.4286C21.4625 13.4286 22.0322 13.9917 21.9243 14.6736C21.7089 16.0363 21.1419 17.3305 20.2677 18.4299C19.1306 19.86 17.5385 20.8788 15.7431 21.3253C13.9477 21.7719 12.0512 21.6207 10.3535 20.8957C9.5656 20.5592 8.84134 20.1081 8.20287 19.5621L6.87254 20.8626L5.27746 15.0431L11.2304 16.6024L9.97648 17.8282C10.3914 18.163 10.8545 18.4422 11.3541 18.6556C12.5425 19.1631 13.87 19.2689 15.1268 18.9563C16.3836 18.6437 17.4981 17.9306 18.294 16.9295C18.8267 16.2597 19.1964 15.4865 19.3827 14.6682C19.536 13.9951 20.0818 13.4286 20.7722 13.4286ZM6.21771 13.0583C5.52736 13.0583 4.95772 12.4952 5.06554 11.8133C5.28101 10.4506 5.84799 9.15635 6.72216 8.05698C7.85928 6.62691 9.45134 5.60812 11.2468 5.16158C13.0422 4.71503 14.9386 4.86621 16.6364 5.59122C17.259 5.85711 17.8419 6.19463 18.3741 6.59396L19.7444 5.25613L21.3405 11.0718L15.3838 9.51352L16.5829 8.34284C16.2857 8.1451 15.9689 7.97357 15.6358 7.83133C14.4473 7.32383 13.1199 7.218 11.8631 7.53058C10.6063 7.84316 9.49181 8.55632 8.69583 9.55737C8.16319 10.2272 7.79347 11.0004 7.60714 11.8187C7.45385 12.4918 6.90807 13.0583 6.21771 13.0583Z"></path>
            </mask>
            <path fill-rule="evenodd" clip-rule="evenodd"
                d="M20.7722 13.4286C21.4625 13.4286 22.0322 13.9917 21.9243 14.6736C21.7089 16.0363 21.1419 17.3305 20.2677 18.4299C19.1306 19.86 17.5385 20.8788 15.7431 21.3253C13.9477 21.7719 12.0512 21.6207 10.3535 20.8957C9.5656 20.5592 8.84134 20.1081 8.20287 19.5621L6.87254 20.8626L5.27746 15.0431L11.2304 16.6024L9.97648 17.8282C10.3914 18.163 10.8545 18.4422 11.3541 18.6556C12.5425 19.1631 13.87 19.2689 15.1268 18.9563C16.3836 18.6437 17.4981 17.9306 18.294 16.9295C18.8267 16.2597 19.1964 15.4865 19.3827 14.6682C19.536 13.9951 20.0818 13.4286 20.7722 13.4286ZM6.21771 13.0583C5.52736 13.0583 4.95772 12.4952 5.06554 11.8133C5.28101 10.4506 5.84799 9.15635 6.72216 8.05698C7.85928 6.62691 9.45134 5.60812 11.2468 5.16158C13.0422 4.71503 14.9386 4.86621 16.6364 5.59122C17.259 5.85711 17.8419 6.19463 18.3741 6.59396L19.7444 5.25613L21.3405 11.0718L15.3838 9.51352L16.5829 8.34284C16.2857 8.1451 15.9689 7.97357 15.6358 7.83133C14.4473 7.32383 13.1199 7.218 11.8631 7.53058C10.6063 7.84316 9.49181 8.55632 8.69583 9.55737C8.16319 10.2272 7.79347 11.0004 7.60714 11.8187C7.45385 12.4918 6.90807 13.0583 6.21771 13.0583Z"
                fill="white"></path>
            <path
                d="M21.9243 14.6736L22.4182 14.7516L21.9243 14.6736ZM20.2677 18.4299L19.8764 18.1187H19.8764L20.2677 18.4299ZM15.7431 21.3253L15.8638 21.8105V21.8105L15.7431 21.3253ZM10.3535 20.8957L10.5499 20.4359V20.4359L10.3535 20.8957ZM8.20287 19.5621L8.52782 19.1821L8.18031 18.8849L7.85334 19.2045L8.20287 19.5621ZM6.87254 20.8626L6.39033 20.9948L6.61481 21.8138L7.22206 21.2201L6.87254 20.8626ZM5.27746 15.0431L5.40416 14.5594L4.56629 14.3399L4.79524 15.1753L5.27746 15.0431ZM11.2304 16.6024L11.5799 16.96L12.2115 16.3425L11.3571 16.1187L11.2304 16.6024ZM9.97648 17.8282L9.62696 17.4707L9.22457 17.8641L9.66254 18.2174L9.97648 17.8282ZM11.3541 18.6556L11.1577 19.1154L11.3541 18.6556ZM15.1268 18.9563L15.0061 18.4711V18.4711L15.1268 18.9563ZM18.294 16.9295L18.6854 17.2407L18.294 16.9295ZM19.3827 14.6682L19.8703 14.7793L19.3827 14.6682ZM5.06554 11.8133L4.57167 11.7353V11.7353L5.06554 11.8133ZM6.72216 8.05698L7.11352 8.36817L6.72216 8.05698ZM11.2468 5.16158L11.1261 4.67636H11.1261L11.2468 5.16158ZM16.6364 5.59122L16.8327 5.13139L16.6364 5.59122ZM18.3741 6.59396L18.0741 6.9939L18.4168 7.25108L18.7234 6.95172L18.3741 6.59396ZM19.7444 5.25613L20.2266 5.1238L20.0021 4.30577L19.3951 4.89837L19.7444 5.25613ZM21.3405 11.0718L21.2139 11.5555L22.0519 11.7748L21.8226 10.9395L21.3405 11.0718ZM15.3838 9.51352L15.0345 9.15576L14.4019 9.77345L15.2573 9.99724L15.3838 9.51352ZM16.5829 8.34284L16.9322 8.7006L17.3743 8.2689L16.8599 7.92657L16.5829 8.34284ZM15.6358 7.83133L15.8321 7.37151L15.8321 7.3715L15.6358 7.83133ZM11.8631 7.53058L11.9837 8.0158L11.8631 7.53058ZM8.69583 9.55737L8.30447 9.24618L8.69583 9.55737ZM7.60714 11.8187L8.09466 11.9297V11.9297L7.60714 11.8187ZM22.4182 14.7516C22.5825 13.7128 21.7131 12.9286 20.7722 12.9286V13.9286C21.2119 13.9286 21.4818 14.2706 21.4305 14.5955L22.4182 14.7516ZM20.6591 18.7411C21.5868 17.5744 22.1892 16.1999 22.4182 14.7516L21.4305 14.5955C21.2285 15.8727 20.697 17.0867 19.8764 18.1187L20.6591 18.7411ZM15.8638 21.8105C17.7647 21.3378 19.4524 20.2586 20.6591 18.7411L19.8764 18.1187C18.8087 19.4614 17.3124 20.4198 15.6224 20.8401L15.8638 21.8105ZM10.1571 21.3555C11.9552 22.1234 13.963 22.2833 15.8638 21.8105L15.6224 20.8401C13.9324 21.2604 12.1473 21.118 10.5499 20.4359L10.1571 21.3555ZM7.87791 19.9421C8.55493 20.521 9.32254 20.9991 10.1571 21.3555L10.5499 20.4359C9.80866 20.1193 9.12775 19.6951 8.52782 19.1821L7.87791 19.9421ZM7.22206 21.2201L8.55239 19.9196L7.85334 19.2045L6.52302 20.5051L7.22206 21.2201ZM4.79524 15.1753L6.39033 20.9948L7.35476 20.7304L5.75967 14.9109L4.79524 15.1753ZM11.3571 16.1187L5.40416 14.5594L5.15076 15.5268L11.1037 17.0861L11.3571 16.1187ZM10.326 18.1858L11.5799 16.96L10.8809 16.2449L9.62696 17.4707L10.326 18.1858ZM11.5505 18.1957C11.0932 18.0004 10.6697 17.745 10.2904 17.4391L9.66254 18.2174C10.1132 18.581 10.6158 18.884 11.1577 19.1154L11.5505 18.1957ZM15.0061 18.4711C13.8547 18.7575 12.6385 18.6604 11.5505 18.1957L11.1577 19.1154C12.4465 19.6657 13.8853 19.7803 15.2475 19.4415L15.0061 18.4711ZM17.9027 16.6183C17.1762 17.532 16.1575 18.1847 15.0061 18.4711L15.2475 19.4415C16.6098 19.1027 17.8199 18.3292 18.6854 17.2407L17.9027 16.6183ZM18.8952 14.5572C18.7256 15.3022 18.3887 16.0071 17.9027 16.6183L18.6854 17.2407C19.2646 16.5123 19.6672 15.6707 19.8703 14.7793L18.8952 14.5572ZM20.7722 12.9286C19.7856 12.9286 19.085 13.724 18.8952 14.5572L19.8703 14.7793C19.9871 14.2662 20.378 13.9286 20.7722 13.9286V12.9286ZM4.57167 11.7353C4.40741 12.7741 5.27675 13.5583 6.21771 13.5583V12.5583C5.77796 12.5583 5.50803 12.2163 5.5594 11.8914L4.57167 11.7353ZM6.3308 7.74579C5.40311 8.91248 4.80067 10.287 4.57167 11.7353L5.5594 11.8914C5.76135 10.6142 6.29288 9.40022 7.11352 8.36817L6.3308 7.74579ZM11.1261 4.67636C9.22518 5.14913 7.53744 6.2283 6.3308 7.74579L7.11352 8.36817C8.18112 7.02553 9.6775 6.0671 11.3674 5.64679L11.1261 4.67636ZM16.8327 5.13139C15.0346 4.36353 13.0269 4.20361 11.1261 4.67636L11.3674 5.64679C13.0575 5.22646 14.8426 5.36889 16.44 6.05104L16.8327 5.13139ZM18.6742 6.19402C18.11 5.77067 17.4923 5.41304 16.8327 5.13139L16.44 6.05104C17.0257 6.30118 17.5738 6.61858 18.0741 6.9939L18.6742 6.19402ZM19.3951 4.89837L18.0248 6.2362L18.7234 6.95172L20.0937 5.61389L19.3951 4.89837ZM21.8226 10.9395L20.2266 5.1238L19.2622 5.38846L20.8583 11.2042L21.8226 10.9395ZM15.2573 9.99724L21.2139 11.5555L21.467 10.5881L15.5104 9.0298L15.2573 9.99724ZM16.2336 7.98508L15.0345 9.15576L15.7331 9.87128L16.9322 8.7006L16.2336 7.98508ZM15.4394 8.29116C15.7443 8.42136 16.0342 8.57829 16.3059 8.75911L16.8599 7.92657C16.5372 7.7119 16.1934 7.52579 15.8321 7.37151L15.4394 8.29116ZM11.9837 8.0158C13.1352 7.72943 14.3513 7.8265 15.4394 8.29116L15.8321 7.3715C14.5434 6.82115 13.1046 6.70658 11.7424 7.04537L11.9837 8.0158ZM9.08718 9.86856C9.81365 8.95493 10.8324 8.30215 11.9837 8.0158L11.7424 7.04537C10.3801 7.38418 9.16997 8.15771 8.30447 9.24618L9.08718 9.86856ZM8.09466 11.9297C8.26432 11.1847 8.60113 10.4798 9.08718 9.86856L8.30447 9.24618C7.72525 9.97462 7.32262 10.8162 7.11962 11.7076L8.09466 11.9297ZM6.21771 13.5583C7.20422 13.5583 7.90491 12.7629 8.09466 11.9297L7.11962 11.7076C7.00278 12.2207 6.61191 12.5583 6.21771 12.5583V13.5583Z"
                fill="black" mask="url(#path-1-outside-1_4_4194)"></path>
        </g>
        <defs>
            <filter id="filter0_dd_4_4194" x="0.551514" y="0.305786" width="25.8867" height="25.771"
                filterUnits="userSpaceOnUse" color-interpolation-filters="sRGB">
                <feFlood flood-opacity="0" result="BackgroundImageFix"></feFlood>
                <feColorMatrix in="SourceAlpha" type="matrix"
                    values="0 0 0 0 0 0 0 0 0 0 0 0 0 0 0 0 0 0 127 0" result="hardAlpha"></feColorMatrix>
                <feOffset dy="2"></feOffset>
                <feComposite in2="hardAlpha" operator="out"></feComposite>
                <feColorMatrix type="matrix" values="0 0 0 0 0 0 0 0 0 0 0 0 0 0 0 0 0 0 1 0"></feColorMatrix>
                <feBlend mode="normal" in2="BackgroundImageFix" result="effect1_dropShadow_4_4194"></feBlend>
                <feColorMatrix in="SourceAlpha" type="matrix"
                    values="0 0 0 0 0 0 0 0 0 0 0 0 0 0 0 0 0 0 127 0" result="hardAlpha"></feColorMatrix>
                <feOffset></feOffset>
                <feGaussianBlur stdDeviation="2"></feGaussianBlur>
                <feComposite in2="hardAlpha" operator="out"></feComposite>
                <feColorMatrix type="matrix" values="0 0 0 0 0 0 0 0 0 0 0 0 0 0 0 0 0 0 0.25 0"></feColorMatrix>
                <feBlend mode="normal" in2="effect1_dropShadow_4_4194"
                    result="effect2_dropShadow_4_4194"></feBlend>
                <feBlend mode="normal" in="SourceGraphic" in2="effect2_dropShadow_4_4194"
                    result="shape"></feBlend>
            </filter>
        </defs>
    </symbol>
    <symbol fill="none" xmlns="http://www.w3.org/2000/svg" viewBox="0 0 30 40" id="settings">
        <g filter="url(#filter0_d_70_1205)">
            <path
                d="M20.8849 20.1435C20.8876 20.0472 20.8876 19.9508 20.8849 19.8545L21.8829 18.6078C21.9352 18.5423 21.9714 18.4655 21.9886 18.3835C22.0058 18.3014 22.0035 18.2165 21.9819 18.1356C21.818 17.5207 21.5733 16.9303 21.2542 16.3798C21.2123 16.3078 21.1543 16.2465 21.0846 16.2009C21.0149 16.1552 20.9356 16.1265 20.8528 16.1169L19.2663 15.9404C19.2003 15.8708 19.1334 15.8039 19.0656 15.7397L18.8784 14.1492C18.8687 14.0664 18.8399 13.987 18.7941 13.9173C18.7484 13.8476 18.687 13.7896 18.6148 13.7479C18.0644 13.429 17.4739 13.1847 16.8591 13.0215C16.7781 12.9998 16.6932 12.9975 16.6112 13.0147C16.5292 13.0319 16.4523 13.0681 16.3869 13.1205L15.1435 14.1131C15.0472 14.1131 14.9508 14.1131 14.8545 14.1131L13.6078 13.1171C13.5423 13.0648 13.4655 13.0286 13.3835 13.0114C13.3014 12.9942 13.2165 12.9965 13.1356 13.0181C12.5207 13.182 11.9303 13.4267 11.3798 13.7458C11.3078 13.7877 11.2465 13.8457 11.2009 13.9154C11.1552 13.9851 11.1265 14.0644 11.1169 14.1472L10.9404 15.7364C10.8708 15.8028 10.8039 15.8697 10.7397 15.937L9.14917 16.1196C9.06637 16.1293 8.98697 16.1581 8.9173 16.2039C8.84762 16.2496 8.7896 16.311 8.74786 16.3832C8.42904 16.9337 8.18457 17.5241 8.02081 18.1389C7.99927 18.2199 7.99706 18.3049 8.01438 18.3869C8.03169 18.4689 8.06803 18.5457 8.12047 18.6111L9.11305 19.8545C9.11305 19.9508 9.11305 20.0472 9.11305 20.1435L8.11712 21.3902C8.0648 21.4557 8.02858 21.5325 8.01138 21.6145C7.99419 21.6966 7.9965 21.7815 8.01813 21.8624C8.18202 22.4773 8.42673 23.0677 8.74585 23.6182C8.78767 23.6902 8.84573 23.7515 8.9154 23.7971C8.98507 23.8427 9.06443 23.8715 9.14716 23.881L10.7337 24.0576C10.8001 24.1272 10.867 24.1941 10.9344 24.2583L11.1196 25.8488C11.1293 25.9316 11.1581 26.011 11.2039 26.0807C11.2496 26.1504 11.311 26.2084 11.3832 26.2501C11.9337 26.569 12.5241 26.8134 13.1389 26.9772C13.2199 26.9987 13.3049 27.0009 13.3869 26.9836C13.4689 26.9663 13.5457 26.93 13.6111 26.8775L14.8545 25.8849C14.9508 25.8876 15.0472 25.8876 15.1435 25.8849L16.3902 26.8829C16.4557 26.9352 16.5325 26.9714 16.6145 26.9886C16.6966 27.0058 16.7815 27.0035 16.8624 26.9819C17.4774 26.8183 18.0678 26.5736 18.6182 26.2542C18.6902 26.2123 18.7515 26.1543 18.7971 26.0846C18.8427 26.0149 18.8715 25.9356 18.881 25.8528L19.0576 24.2663C19.1272 24.2003 19.1941 24.1334 19.2583 24.0656L20.8488 23.8784C20.9316 23.8687 21.011 23.8399 21.0807 23.7941C21.1504 23.7484 21.2084 23.687 21.2501 23.6148C21.569 23.0643 21.8134 22.4739 21.9772 21.8591C21.9987 21.7781 22.0009 21.6931 21.9836 21.6111C21.9663 21.5291 21.93 21.4523 21.8775 21.3869L20.8849 20.1435ZM14.999 22.6744C14.4698 22.6744 13.9526 22.5175 13.5126 22.2235C13.0726 21.9296 12.7297 21.5117 12.5272 21.0228C12.3247 20.534 12.2717 19.996 12.375 19.477C12.4782 18.9581 12.733 18.4813 13.1072 18.1072C13.4813 17.733 13.9581 17.4782 14.477 17.375C14.996 17.2717 15.534 17.3247 16.0228 17.5272C16.5117 17.7297 16.9296 18.0726 17.2235 18.5126C17.5175 18.9526 17.6744 19.4698 17.6744 19.999C17.6744 20.7086 17.3926 21.3891 16.8908 21.8908C16.3891 22.3926 15.7086 22.6744 14.999 22.6744Z"
                fill="white"></path>
            <path
                d="M22.0131 18.7118L22.013 18.7119L21.0529 19.9114C21.0539 19.9698 21.0539 20.0283 21.0529 20.0867L22.0076 21.2826C22.0076 21.2826 22.0076 21.2826 22.0076 21.2826C22.0763 21.3684 22.124 21.4691 22.1467 21.5767C22.1694 21.6843 22.1665 21.7957 22.1383 21.9019L22.1382 21.902C21.9707 22.531 21.7206 23.135 21.3944 23.6983C21.3944 23.6983 21.3944 23.6983 21.3944 23.6984L21.2501 23.6148C21.2084 23.687 21.1504 23.7484 21.0807 23.7941C21.011 23.8399 20.9316 23.8687 20.8488 23.8784L22.0131 18.7118ZM22.0131 18.7118C22.0817 18.626 22.1292 18.5252 22.1517 18.4177C22.1743 18.3101 22.1713 18.1988 22.1429 18.0926M22.0131 18.7118L21.3983 16.2961M21.3983 16.2961L21.3983 16.2962C21.7249 16.8595 21.9752 17.4635 22.1429 18.0926M21.3983 16.2961C21.3434 16.2017 21.2673 16.1213 21.1759 16.0615C21.0846 16.0016 20.9805 15.9639 20.872 15.9514L20.8713 15.9513M21.3983 16.2961L20.8713 15.9513M22.1429 18.0926L21.9819 18.1356L22.1429 18.0925C22.1429 18.0926 22.1429 18.0926 22.1429 18.0926ZM20.8713 15.9513L19.3448 15.7814C19.3049 15.7403 19.2647 15.7001 19.2242 15.6608L19.0439 14.1299L20.8713 15.9513ZM11.2961 13.6017L11.2962 13.6017C11.8595 13.2752 12.4635 13.0248 13.0925 12.8571C13.0926 12.8571 13.0926 12.8571 13.0926 12.8571L13.1356 13.0181C13.2165 12.9965 13.3014 12.9942 13.3835 13.0114L11.2961 13.6017ZM11.2961 13.6017C11.2017 13.6566 11.1213 13.7327 11.0615 13.8241C11.0016 13.9154 10.9639 14.0195 10.9514 14.128L10.9513 14.1288M11.2961 13.6017L10.9513 14.1288M13.7118 12.9869L14.9129 13.9464H14.9132H14.9138H14.9143H14.9149H14.9155H14.916H14.9166H14.9172H14.9177H14.9183H14.9189H14.9194H14.92H14.9206H14.9211H14.9217H14.9222H14.9228H14.9234H14.9239H14.9245H14.9251H14.9256H14.9262H14.9268H14.9273H14.9279H14.9285H14.929H14.9296H14.9301H14.9307H14.9313H14.9318H14.9324H14.933H14.9335H14.9341H14.9347H14.9352H14.9358H14.9364H14.9369H14.9375H14.938H14.9386H14.9392H14.9397H14.9403H14.9409H14.9414H14.942H14.9426H14.9431H14.9437H14.9443H14.9448H14.9454H14.9459H14.9465H14.9471H14.9476H14.9482H14.9488H14.9493H14.9499H14.9505H14.951H14.9516H14.9522H14.9527H14.9533H14.9538H14.9544H14.955H14.9555H14.9561H14.9567H14.9572H14.9578H14.9584H14.9589H14.9595H14.9601H14.9606H14.9612H14.9617H14.9623H14.9629H14.9634H14.964H14.9646H14.9651H14.9657H14.9663H14.9668H14.9674H14.968H14.9685H14.9691H14.9697H14.9702H14.9708H14.9713H14.9719H14.9725H14.973H14.9736H14.9742H14.9747H14.9753H14.9759H14.9764H14.977H14.9776H14.9781H14.9787H14.9792H14.9798H14.9804H14.9809H14.9815H14.9821H14.9826H14.9832H14.9838H14.9843H14.9849H14.9855H14.986H14.9866H14.9871H14.9877H14.9883H14.9888H14.9894H14.99H14.9905H14.9911H14.9917H14.9922H14.9928H14.9934H14.9939H14.9945H14.995H14.9956H14.9962H14.9967H14.9973H14.9979H14.9984H14.999H14.9996H15.0001H15.0007H15.0013H15.0018H15.0024H15.0029H15.0035H15.0041H15.0046H15.0052H15.0058H15.0063H15.0069H15.0075H15.008H15.0086H15.0092H15.0097H15.0103H15.0108H15.0114H15.012H15.0125H15.0131H15.0137H15.0142H15.0148H15.0154H15.0159H15.0165H15.0171H15.0176H15.0182H15.0187H15.0193H15.0199H15.0204H15.021H15.0216H15.0221H15.0227H15.0233H15.0238H15.0244H15.025H15.0255H15.0261H15.0266H15.0272H15.0278H15.0283H15.0289H15.0295H15.03H15.0306H15.0312H15.0317H15.0323H15.0329H15.0334H15.034H15.0346H15.0351H15.0357H15.0362H15.0368H15.0374H15.0379H15.0385H15.0391H15.0396H15.0402H15.0408H15.0413H15.0419H15.0425H15.043H15.0436H15.0441H15.0447H15.0453H15.0458H15.0464H15.047H15.0475H15.0481H15.0487H15.0492H15.0498H15.0504H15.0509H15.0515H15.052H15.0526H15.0532H15.0537H15.0543H15.0549H15.0554H15.056H15.0566H15.0571H15.0577H15.0583H15.0588H15.0594H15.0599H15.0605H15.0611H15.0616H15.0622H15.0628H15.0633H15.0639H15.0645H15.065H15.0656H15.0662H15.0667H15.0673H15.0678H15.0684H15.069H15.0695H15.0701H15.0707H15.0712H15.0718H15.0724H15.0729H15.0735H15.0741H15.0746H15.0752H15.0757H15.0763H15.0769H15.0774H15.078H15.0786H15.0791H15.0797H15.0803H15.0808H15.0814H15.082H15.0825H15.0831H15.0836H15.0842H15.0848H15.0851L16.2828 12.9903C16.3687 12.9217 16.4694 12.8742 16.577 12.8516C16.6845 12.8291 16.7958 12.8321 16.902 12.8604M13.7118 12.9869L19.0439 14.1297C19.0312 14.0212 18.9934 13.9171 18.9335 13.8258C18.8735 13.7344 18.7929 13.6583 18.6983 13.6036C18.1351 13.2774 17.531 13.0274 16.902 12.8604M13.7118 12.9869C13.7118 12.9869 13.7118 12.9869 13.7118 12.9869L13.7118 12.9869ZM16.902 12.8604C16.902 12.8604 16.9021 12.8604 16.9021 12.8605L16.8591 13.0215M16.902 12.8604C16.9019 12.8604 16.9019 12.8604 16.9019 12.8604L16.8591 13.0215M16.8591 13.0215C16.7781 12.9998 16.6932 12.9975 16.6112 13.0147C16.5292 13.0319 16.4523 13.0681 16.3869 13.1205L15.1435 14.1131L16.8591 13.0215ZM10.9513 14.1288L10.7814 15.6582C10.7404 15.698 10.7004 15.738 10.6612 15.7783L9.13016 15.954L9.12991 15.9541L10.9513 14.1288ZM8.60172 23.7019L8.60166 23.7018C8.27514 23.1385 8.02477 22.5344 7.85709 21.9054M8.60172 23.7019L8.01138 21.6145C8.02858 21.5325 8.0648 21.4557 8.11712 21.3902M8.60172 23.7019C8.65656 23.7963 8.7327 23.8767 8.82408 23.9365L8.9154 23.7971M8.60172 23.7019L8.9154 23.7971M7.85709 21.9054L8.01813 21.8624L7.85711 21.9055C7.8571 21.9054 7.8571 21.9054 7.85709 21.9054ZM7.85709 21.9054C7.82874 21.7992 7.82572 21.6879 7.84826 21.5803C7.87081 21.4728 7.91831 21.372 7.98694 21.2862M7.98694 21.2862L7.9869 21.2862L8.11712 21.3902M7.98694 21.2862L8.11712 21.3902M7.98694 21.2862L8.94638 20.0851V20.0848V20.0842V20.0836V20.0831V20.0825V20.082V20.0814V20.0808V20.0803V20.0797V20.0791V20.0786V20.078V20.0774V20.0769V20.0763V20.0757V20.0752V20.0746V20.0741V20.0735V20.0729V20.0724V20.0718V20.0712V20.0707V20.0701V20.0695V20.069V20.0684V20.0678V20.0673V20.0667V20.0662V20.0656V20.065V20.0645V20.0639V20.0633V20.0628V20.0622V20.0616V20.0611V20.0605V20.0599V20.0594V20.0588V20.0583V20.0577V20.0571V20.0566V20.056V20.0554V20.0549V20.0543V20.0537V20.0532V20.0526V20.052V20.0515V20.0509V20.0504V20.0498V20.0492V20.0487V20.0481V20.0475V20.047V20.0464V20.0458V20.0453V20.0447V20.0441V20.0436V20.043V20.0425V20.0419V20.0413V20.0408V20.0402V20.0396V20.0391V20.0385V20.0379V20.0374V20.0368V20.0362V20.0357V20.0351V20.0346V20.034V20.0334V20.0329V20.0323V20.0317V20.0312V20.0306V20.03V20.0295V20.0289V20.0283V20.0278V20.0272V20.0266V20.0261V20.0255V20.025V20.0244V20.0238V20.0233V20.0227V20.0221V20.0216V20.021V20.0204V20.0199V20.0193V20.0187V20.0182V20.0176V20.0171V20.0165V20.0159V20.0154V20.0148V20.0142V20.0137V20.0131V20.0125V20.012V20.0114V20.0108V20.0103V20.0097V20.0092V20.0086V20.008V20.0075V20.0069V20.0063V20.0058V20.0052V20.0046V20.0041V20.0035V20.0029V20.0024V20.0018V20.0013V20.0007V20.0001V19.9996V19.999V19.9984V19.9979V19.9973V19.9967V19.9962V19.9956V19.995V19.9945V19.9939V19.9934V19.9928V19.9922V19.9917V19.9911V19.9905V19.99V19.9894V19.9888V19.9883V19.9877V19.9871V19.9866V19.986V19.9855V19.9849V19.9843V19.9838V19.9832V19.9826V19.9821V19.9815V19.9809V19.9804V19.9798V19.9792V19.9787V19.9781V19.9776V19.977V19.9764V19.9759V19.9753V19.9747V19.9742V19.9736V19.973V19.9725V19.9719V19.9713V19.9708V19.9702V19.9697V19.9691V19.9685V19.968V19.9674V19.9668V19.9663V19.9657V19.9651V19.9646V19.964V19.9634V19.9629V19.9623V19.9617V19.9612V19.9606V19.9601V19.9595V19.9589V19.9584V19.9578V19.9572V19.9567V19.9561V19.9555V19.955V19.9544V19.9538V19.9533V19.9527V19.9522V19.9516V19.951V19.9505V19.9499V19.9493V19.9488V19.9482V19.9476V19.9471V19.9465V19.9459V19.9454V19.9448V19.9443V19.9437V19.9431V19.9426V19.942V19.9414V19.9409V19.9403V19.9397V19.9392V19.9386V19.938V19.9375V19.9369V19.9364V19.9358V19.9352V19.9347V19.9341V19.9335V19.933V19.9324V19.9318V19.9313V19.9307V19.9301V19.9296V19.929V19.9285V19.9279V19.9273V19.9268V19.9262V19.9256V19.9251V19.9245V19.9239V19.9234V19.9228V19.9222V19.9217V19.9211V19.9206V19.92V19.9194V19.9189V19.9183V19.9177V19.9172V19.9166V19.916V19.9155V19.9149V19.9143V19.9138V19.9132V19.9129L7.99044 18.7154C7.99038 18.7153 7.99033 18.7152 7.99028 18.7152L7.99021 18.7151L8.11712 21.3902M8.9154 23.7971L8.82408 23.9365C8.91545 23.9964 9.01953 24.0341 9.12803 24.0466L9.12873 24.0467M8.9154 23.7971L9.12873 24.0467M9.12873 24.0467L10.6555 24.2166C10.6954 24.2576 10.7354 24.2977 10.7757 24.3369L10.9541 25.8681M9.12873 24.0467L10.9541 25.8681M13.0961 27.1383L13.096 27.1382C12.467 26.9707 11.863 26.7206 11.2997 26.3944C11.2997 26.3944 11.2997 26.3944 11.2996 26.3944L11.3832 26.2501C11.311 26.2084 11.2496 26.1504 11.2039 26.0807L13.0961 27.1383ZM13.0961 27.1383C13.2023 27.1665 13.3137 27.1694 13.4213 27.1467C13.5289 27.124 13.6296 27.0763 13.7154 27.0076L14.9113 26.0529C14.9697 26.0539 15.0282 26.0539 15.0866 26.0529L16.2861 27.013L16.2862 27.0131M13.0961 27.1383L16.2862 27.0131M10.9541 25.8681C10.9541 25.8681 10.9541 25.8681 10.9541 25.8681L10.9541 25.8681ZM16.2862 27.0131C16.372 27.0817 16.4728 27.1292 16.5803 27.1517M16.2862 27.0131L16.5803 27.1517M16.5803 27.1517C16.6879 27.1743 16.7992 27.1713 16.9053 27.1429L16.5803 27.1517ZM19.3372 24.2242L20.8681 24.0439L16.9055 27.1429C17.5346 26.9755 18.1387 26.7251 18.7018 26.3983L18.7019 26.3983C18.7963 26.3434 18.8767 26.2673 18.9365 26.1759C18.9964 26.0846 19.0341 25.9805 19.0466 25.872L19.0467 25.8713L19.2166 24.3448C19.2577 24.3049 19.2979 24.2647 19.3372 24.2242ZM7.85976 18.096L7.85974 18.0961L8.74786 16.3832L8.60362 16.2996C8.60361 16.2997 8.6036 16.2997 8.60359 16.2997C8.27742 16.863 8.0273 17.467 7.85976 18.096ZM14.999 22.5078C14.5028 22.5078 14.0178 22.3606 13.6052 22.085C13.1926 21.8093 12.8711 21.4175 12.6812 20.9591C12.4913 20.5006 12.4416 19.9962 12.5384 19.5096C12.6352 19.0229 12.8742 18.5759 13.225 18.225C13.5759 17.8742 14.0229 17.6352 14.5096 17.5384C14.9962 17.4416 15.5006 17.4913 15.9591 17.6812C16.4175 17.8711 16.8093 18.1926 17.085 18.6052C17.3606 19.0178 17.5078 19.5028 17.5078 19.999C17.5078 20.6644 17.2434 21.3025 16.773 21.773C16.3025 22.2434 15.6644 22.5078 14.999 22.5078Z"
                stroke="black" stroke-width="0.333333"></path>
        </g>
        <defs>
            <filter id="filter0_d_70_1205" x="7.66675" y="12.6666" width="14.6665" height="15.3334"
                filterUnits="userSpaceOnUse" color-interpolation-filters="sRGB">
                <feFlood flood-opacity="0" result="BackgroundImageFix"></feFlood>
                <feColorMatrix in="SourceAlpha" type="matrix"
                    values="0 0 0 0 0 0 0 0 0 0 0 0 0 0 0 0 0 0 127 0" result="hardAlpha"></feColorMatrix>
                <feOffset dy="0.666667"></feOffset>
                <feComposite in2="hardAlpha" operator="out"></feComposite>
                <feColorMatrix type="matrix" values="0 0 0 0 0 0 0 0 0 0 0 0 0 0 0 0 0 0 0.39 0"></feColorMatrix>
                <feBlend mode="normal" in2="BackgroundImageFix" result="effect1_dropShadow_70_1205"></feBlend>
                <feBlend mode="normal" in="SourceGraphic" in2="effect1_dropShadow_70_1205"
                    result="shape"></feBlend>
            </filter>
        </defs>
    </symbol>
</svg>